<svg xmlns="http://www.w3.org/2000/svg" viewBox="0 0 260 200" preserveAspectRatio="xMinYMin"><defs><style>.cls-1{fill:#efe4ac;}</style></defs><title>corners</title><g id="Warstwa_2" data-name="Warstwa 2"><g xmlns="http://www.w3.org/2000/svg" id="Warstwa_1-2" data-name="Warstwa 1"><polygon class="cls-1" points="20 40 20 20 40 20 40 0 20 0 0 0 0 20 0 40 20 40"/><polygon class="cls-1" points="260 0 260 40 240 40 240 20 220 20 220 0 260 0"/><polygon class="cls-1" points="0 200 40 200 40 180 20 180 20 160 0 160 0 200"/><polygon class="cls-1" points="260 200 220 200 220 180 240 180 240 160 260 160 260 200"/></g></g></svg>