<svg xmlns="http://www.w3.org/2000/svg" viewBox="0 0 1920 384" preserveAspectRatio="xMinYMin"><defs><style>.cls-1{fill:#999;}.cls-2{fill:#333;}.cls-3{fill:#fb6b31;}.cls-4{fill:#ccc;}.cls-5{fill:#f6f0ca;}.cls-6{fill:#666;}.cls-7{fill:#efe4ac;}.cls-8{fill:#6b4832;}</style></defs><title>bg-cennik1</title><g id="Warstwa_2" data-name="Warstwa 2"><g id="Warstwa_1-2" data-name="Warstwa 1"><path class="cls-1" d="M128,128H256V0H128ZM208,16h32V48H208Zm0,64h32v32H208ZM144,16h32V48H144Zm0,64h32v32H144Z"/><path class="cls-2" d="M512,0H384V128H512ZM432,48H400V16h32Zm64,64H464V80h32Zm0-64H464V16h32Z"/><path class="cls-3" d="M1152,128h128V0H1152Zm80-48h32v32h-32Zm-64-64h32V48h-32Z"/><path class="cls-1" d="M1792,384h128V256H1792Zm80-48h32v32h-32Zm-64-64h32v32h-32Z"/><path class="cls-4" d="M1536,128h128V0H1536Zm80-48h32v32h-32Zm-64-64h32V48h-32Z"/><path class="cls-5" d="M512,0V128H640V0Zm32,96V32h32V64h32V96Z"/><path class="cls-6" d="M1792,128H1664V256h128Zm-96,64h32V160h32v32h-32v32h-32Z"/><path class="cls-4" d="M0,128V256H128V128Zm32,96V160H96v64Z"/><path class="cls-7" d="M1792,0V128h128V0Zm32,96V32h64V96Z"/><path class="cls-7" d="M0,0V128H128V0ZM64,98.56,29.44,64,64,29.44,98.56,64Z"/><path class="cls-8" d="M1536,128V0H1408V128Zm-96-96h64V96h-32V64h-32Z"/><path class="cls-4" d="M768,0V128H896V0Zm64,96V64H800V32h32V64h32V96Z"/><path class="cls-6" d="M640,0V128H768V0Zm64,98.56L669.44,64,704,29.44,738.56,64Z"/></g></g></svg>