<svg xmlns="http://www.w3.org/2000/svg" viewBox="0 0 1920 384" preserveAspectRatio="xMinYMin"><defs><style>.cls-1{fill:#f6f0ca;}.cls-2{fill:#333;}.cls-3{fill:#fb6b31;}.cls-4{fill:#999;}.cls-5{fill:#ccc;}.cls-6{fill:#efe4ac;}.cls-7{fill:#666;}</style></defs><title>bg-cennik1m</title><g id="Warstwa_2" data-name="Warstwa 2"><g id="Warstwa_1-2" data-name="Warstwa 1"><g id="Warstwa_2-2" data-name="Warstwa 2"><g id="Warstwa_1-2-2" data-name="Warstwa 1-2"><path class="cls-1" d="M192,192H384V0H192ZM312,24h48V72H312Zm0,96h48v48H312ZM216,24h48V72H216Zm0,96h48v48H216Z"/><path class="cls-2" d="M576,0H384V192H576ZM456,72H408V24h48Zm96,96H504V120h48Zm0-96H504V24h48Z"/><path class="cls-3" d="M1152,192h192V0H1152Zm120-72h48v48h-48Zm-96-96h48V72h-48Z"/><path class="cls-4" d="M1728,384h192V192H1728Zm120-72h48v48h-48Zm-96-96h48v48h-48Z"/><path class="cls-5" d="M960,0V192h192V0Zm48,144V48h48V96h48v48Z"/><path class="cls-5" d="M1536,0V192h192V0Zm96,144V96h-48V48h48V96h48v48Z"/><path class="cls-5" d="M0,192V384H192V192ZM48,336V240h96v96Z"/><path class="cls-6" d="M1728,0V192h192V0Zm48,144V48h96v96Z"/><path class="cls-7" d="M0,0V192H192V0ZM96,147.84,44.16,96,96,44.16,147.84,96Z"/></g></g></g></g></svg>