<svg xmlns="http://www.w3.org/2000/svg" viewBox="0 0 893.27 514.61"><defs><style>.cls-1{fill:#999;}.cls-2{fill:#efe4ac;}</style></defs><title>map</title><g id="Warstwa_2" data-name="Warstwa 2"><g id="Warstwa_1-2" data-name="Warstwa 1"><path class="cls-1" d="M536,250.68c-5.4-2.86-12.11-2.48-16.69-7.73-2.61-3-2.85-5.14-.27-7.53,3.27-3,7.1-5.39,8.33-10.21.43-1.7,2.7-1.14,4.34-1.18,2.77-.07,5.29,2,8.17,1-1.49-5.57-4.4-8.74-10.58-7.71a11.93,11.93,0,0,1-9.37-2.61c-1.92-1.46-3.94-1.71-6.46-1.62-5.59.19-10.18-3.68-13.72-6.9-2.48-2.25-1-8.17,1.2-12.15,2.63-4.75,1.53-7.55-3.52-9.53-3.69-1.44-7.5-1.1-11.31-1.13-2.62,0-5.29.31-7.72-1.39,5.72-3.38,10.64-8.24,14.69-12.85,3.75-4.27,7.17-4.93,11.73-6.07,2.79-.7,5.05-3.58,7.49-5.56,8.8-7.11,9.31-6.68,19.19-.87,7.43,4.36,11,11.26,14.81,18.16,1.8,3.23,3.52,4.29,7.38,2.75a125.4,125.4,0,0,1,25.74-7c1.61-.27,3.28-.41,2.59-2.49-1-3.12.87-4.33,3-5.71,11.55-7.52,23.06-15.11,34.6-22.65,1.25-.81,2.62-1.43,3.44-2.78,1.35-2.23,1.18-5.45,5-5.95,5-.66,9.92-1.44,14.63.77,10.95,5.13,22.5,8.76,33.54,13.63,6.8,3,13.29,1,19.83-.47a143.15,143.15,0,0,0,13.79-4,68.78,68.78,0,0,1,23.89-3.61c11.06.34,21.49-3.21,31.93-6.36,1.83-.55,2.87-1.51,2-3.64-1.07-2.72-.52-5.6-.66-8.41-.15-3.27-.49-6.5,3.78-7.9,2-.65,2.64-2.83,2.56-5A38.53,38.53,0,0,1,781.64,80c1.32-1.69,1-3.24-.27-4.9s-3-3.52-2.22-5.82c1.71-5.05-.23-9.36-2.14-13.82-2-4.66,1.73-10.76,6.87-11.09,3.65-.24,7.43-.07,9.91,3.37,1.39,1.93,3.36,1.8,5.38,1.85,3,.07,6.05-.22,8,2.89.92,1.47,2.23.84,3.54.32,4.35-1.72,7,.39,8.51,4.23s3.25,5.84,7.28,2.74c2.27-1.74,3,1.21,4.53,1.83,2.06.85,4,3.05,5.14-1,.59-2.07,2.4-2.81,4.39-1.86,3,1.44,4.56.43,5.46-2.61.74-2.49,3-2.62,4.12-.94,2.54,3.63,4.38,1.15,6.5-.17,1.51-.94,2.51-2.82,4.63-2.65,1,.08,2.53,0,2.78.55,1.72,3.59,5,6.92,4.82,10.81-.18,4.17,1.42,4,4.18,3.36a31.46,31.46,0,0,1,3.39-.75c2.36-.24,3,.61,1.82,2.86a42.74,42.74,0,0,0-2.9,6.34c-.8,2.29-2.24,3.38-4.5,2.75-3.9-1.09-5.79,1.29-7.72,3.92-2.14,2.93-4.07,6.18-8.65,5.38-2.74-.48-2.9,2-3,3.62a20.43,20.43,0,0,1-3.17,8.81c-4.77,7.82-5.54,16.62-6,25.41-.38,7.82-.14,15.66-.19,23.49,0,5.54-1.59,7.22-7.22,7.4-2.52.08-5,0-7.14,1.59-1.11.86-3.87.47-2.9,3,.73,1.9,1.42,4.54,4.27,4.09,5-.79,5.93,2,6.15,6,.24,4.34,3.21,7.55,5.22,11.15,1.9,3.4,5,6.19,4.73,10.71-.15,2.74,3.6,1.88,4.89,4.18a13.55,13.55,0,0,0-7.39,2.59,8.4,8.4,0,0,0-3.83,7c-.34,4.22,2.73,6,5.14,7.91a42.24,42.24,0,0,1,8.66,9.73c2.79,4,8.32,6.33,12.94,8.84,1.37.75,2.61,1.11,3,2.68,2.78,11.92,9.31,21.86,16.59,31.4-7.55,6-13.63,13.08-16.17,22.73-.78,3-2.77,4.26-6.18,4.58-6.46.61-11.12-2-15.38-6.36-5.94-6.13-13.1-9.63-21.86-8.92-11.16.9-21.72,4.49-32.37,7.57-6.5,1.88-12.69,5.32-19.29,6.32-9.79,1.48-19.58.53-28.3-5.34a26.66,26.66,0,0,0-8.19-3.62c-8.7-2.22-17.62-4.67-25.45,2.27-2.45,2.17-4.36,5-6.38,7.6-5.2,6.72-7.37,6.73-14.91,2.55-6.78-3.76-12.86-9.18-21.71-8.65a102,102,0,0,0-17.54,2.85c-10.27,2.43-15.27-1.17-15.41-11.37a28.92,28.92,0,0,0-.06-3c-.92-7.81-1.83-15.77-9.18-20.57-8.34-5.44-17.71-4.95-26.38-1.87-16.27,5.78-32.11,7.6-48.07-.49A26,26,0,0,0,536,250.68Z"/><path class="cls-1" d="M305.2,269.17c-3.45,4-7.45,7.54-8.28,13.28-.29,2-2.82,2.72-4.42,3.79-7.92,5.28-12.73,12.13-11.34,22,.51,3.62-3.61,5.06-3.4,8.48,0,.58-1.37-.24-2.08-.42-4-1-7.16.87-6.43,5,1.74,9.79-3.12,14.18-11.54,16.94-3.15,1-6.57,2.27-7,7.22-.19,2.09-2.14,6.44-7.17,5.51-4-.74-12.7,9.44-12.58,13.76.06,2.21,2,2.49,3.29,3.28,2.73,1.64,4,3.92,2.1,6.61-6.74,9.45-11,20.49-18.5,29.42a24.15,24.15,0,0,1-6.48,5.41c-3.53,2-5.71,4.26-4.53,9.19,1.3,5.41-3.68,11-9.32,11.61-1.51.16-2.6.44-2.94,2-.42,1.92-1.21,3.94.58,5.6,1.58,1.47,3.4,2.72,4.86,4.29,1.95,2.08,1.23,3.69-1.45,4.11a38.44,38.44,0,0,1-6.37.78c-5.16-.1-6.14,3.75-6.8,7.09-.56,2.8.35,5.85,4.45,6.39,2,.26,1.62,2.39,1,3.67a25.59,25.59,0,0,1-3.66,5.31c-2.47,2.73-4.78,5.16-4.56,9.45.16,3.13-2.82,4.88-5.76,5.25-3.68.46-5.63,2.68-5.43,5.87.36,5.47-3.42,5-6.49,4.82-3.6-.26-7.08-1.63-10.79-1.68a2.88,2.88,0,0,1-3-2.69c-.71-5.1-3.43-7.4-8.89-7.75-6.54-.41-5.66-.69-2.91-6.74,2.6-5.75,7.84-11.13,5-18.68-1.52-4.1-3.3-7.16-8.17-7a4.62,4.62,0,0,1-3.27-.92c-5.19-4.28-11.41-4.17-17.46-3.36-3.69.49-4.33-.7-4.35-3.83A68.93,68.93,0,0,1,113.17,426a32.25,32.25,0,0,0,1.17-4.83c.21-2.8-.1-4.88-4.05-5.09-17.3-.89-33.68-7-50.73-9.33-6.78-.93-13.71-1.57-19.18,4.09a4.11,4.11,0,0,1-3.85,1.41A6.8,6.8,0,0,0,30.41,415c-2.69,3.55-6.16,3.75-9.61.51-.9-.84-1.42-2.59-3.14-1.7-3.44,1.77-3.83-.79-4.62-3-.65-1.86-1.3-3.92-3.3-4.75-3.51-1.46-4.52,1.45-6.14,3.77-.94-4.37.9-8.51.63-12.81-.77-12.45-1.53-24.88-4-37.14-1.07-5.28,1.9-11.37,6.74-13.56,7.11-3.23,11-8.64,12.15-16.34.77-5.08,2-10.09,5.73-14.06,4.85-5.17,11-4.94,15,.9,2.31,3.43,4.19,7.17,6.18,10.82,2.4,4.4,5.42,6.91,10.85,4.89,8.1-3,16.49-5.45,20-14.63a17.07,17.07,0,0,0,.13-13.1,81.85,81.85,0,0,1-4-12.28c4.95-3,10.44-3.6,16.09-4.49,11.54-1.83,18.28-11.31,25.68-19.08,3.45-3.62,6.2-5.52,11.3-4.85,9,1.18,18.26,2.42,27.32.86,6.57-1.13,11.44.16,15,5.87,5.61,9.09,13.76,13.56,24.38,14.91,6.84.87,13.64,0,20.4.9,4.95.67,15.95-4.54,18.26-8.92q6.3-11.91,12.47-23.9c3.54-6.91,6-8.61,13.39-7.29,10.52,1.88,20.5,1.58,29.49-5,3.77-2.77,5.63-1.21,6.17,2.83C294.18,254,297.9,262.45,305.2,269.17Z"/><path class="cls-1" d="M60,291.32c-9.33-3.42-13-8.52-12.84-18.5,0-3.57-.18-6.68-3.11-9.45-2.68-2.54-.28-5.36,1.25-7.54a127.73,127.73,0,0,1,9.49-12.21,45.76,45.76,0,0,0,11.6-24.82c.07-.49.43-1,.42-1.43,0-2.62,4.21-5.42,1-7.47-4.62-3-9.07-7.86-15.56-5.46-3.49,1.29-5.81,2-7.55-2.61-1.23-3.25-3.66-6.41-8.08-6.48-2.26,0-2.55-1.6-2.36-3.51a24.45,24.45,0,0,0-3.67-15.71c-2-3.14-1.16-5.46,2.13-6.66s4.91-3.78,6-6.81c2.27-6.51,6.7-12.32,6.5-19.65a2.82,2.82,0,0,1,1.9-2.67,8.25,8.25,0,0,1,3.23-1.07c16.4-.3,27.64-9.89,38-21,4.19-4.49,8.41-4.92,12.68-1.91a4.66,4.66,0,0,1,2,5.61c-1.24,4,.25,7.28,2.21,10.26A126.6,126.6,0,0,0,116.14,147c3.64,4.09,8.88,4.92,14.23,4.35,3-.32,5.86-.23,8.19,2.25.86.92,2,2,3.47,1.71,3.37-.6,5.22,1.56,7.11,3.67,3.09,3.44,5.83,7.35,11.14,7.55.53,0,1.17.66,1.53,1.17,2.8,3.86,6.51,4.58,11.19,4.79,5.6.24,10.61,3.52,14.36,7.67,4.54,5,9.23,8.9,16.5,8.3,1.35-.11,2.85.71,4.17,1.33,10.37,4.85,20.55,9.88,29.53,17.28,5,4.1,12.08,4,18.2,5.86,4.57,1.38,9.23,2.94,13.93,3.31,10.23.79,13.92,7.27,15.46,16.1-8.85,7-18.58,8.12-29.38,5.36-7.28-1.86-14.83,2.49-18.39,9.4-3.79,7.38-7.73,14.69-11.22,22.22-3.08,6.65-8.48,8.91-15.18,9-3.29,0-6.62-1-9.89-.76-11.93.7-21.16-3.26-27.64-13.8C170,258,164.16,256,157.2,256.16c-9.93.26-19.89.93-29.84-.63-5.61-.88-12.73-1-15.82,3.5-4.47,6.52-10.76,10.72-15.87,16.28a13,13,0,0,1-9.16,4.21C76.39,280.39,67.15,283.65,60,291.32Z"/><path class="cls-1" d="M198.26,435.08c9.31-3.3,11.81-7.13,11.85-18.22,0-2,1.19-3,2.68-3.86,7.56-4.54,12.34-11.45,16.3-19.07,1.45-2.8,3-5.53,4.72-8.2,5.23-8.31,12.45-9.37,19.49-2.41,2.42,2.4,4.76,3,7.9,3.08,10.06.21,19.89,3.65,30,1.48,1,5.17-2.59,7.5-4.72,10.46-1.39,1.93-1.92,3.54-.92,5.91,1.09,2.6,3.05,2.12,4.94,2.07,6.68-.17,13.27.14,19.61,2.63,2.61,1,4.69,2.3,5.41,5.25a14.32,14.32,0,0,0,1.63,3.62c2,3.39,2.1,8.61,5.74,10,6.44,2.52,13.53,3.66,20.46,1.82,7.88-2.1,16.19-3,23.31-7.48,2-1.26,3.94-.85,6.17-.3,10.66,2.63,21.14,1.77,30.42-4.26,4.51-2.94,9.56-4.82,14.11-7.72,3.48-2.21,8.85,2,13,4.51,3,1.87,1.71,4.29,1.13,6.62-.76,3.08-.16,5.31,2.82,7.08,4.84,2.87,9.09,6.76,14.58,8.5,2.25.71,2.89,2.36,3.32,4.45,1.56,7.66,3.27,15.23,9.29,21,1.82,1.74,1.13,3.89-1,5-3.59,1.84-5.83,4.84-7.89,8.09a8.86,8.86,0,0,1-4.11,3.47c-4.85,2.12-7,5.79-6.16,11.15.37,2.38,1.23,5.07-1.49,6.7-3.21,1.92-6.59,3.15-10.24.94a6.61,6.61,0,0,0-8.59.85,7.35,7.35,0,0,1-5.77,2.18c-8.36-.2-16.31,3.28-24.69,2.92-1.51-.06-3.68,1-4.43-1s0-3.87,1.71-5.34,3-2.9.77-4.88c-3.37-3-2.18-6-.47-9.29,2.29-4.43.69-7.7-4.14-7.34-10.57.8-21.2,1.94-30.81,7-5,2.64-6.13,7.5-2.9,12.37,2.16,3.26,2.08,4.37-2.21,4.61-4.72.26-7.69,5.29-6.33,10.28.78,2.89.7,4.41-2.76,3-1.37-.55-2.11.44-3.15.81-3,1.06-6.14,2.32-7.17-2.5-.25-1.15-.93-2.38-2.31-2.23-4.78.51-7.09-3.05-9.81-5.84-2.15-2.2-5.22-2.84-7.44-4.42a62.08,62.08,0,0,0-20.69-9.35c-2.9-.76-4.25-3.42-4.3-6.64s-.88-5.77-5.18-5.47c-1.87.13-3.42-1.08-4.08-3.53-1.37-5.06-5.7-7-10.69-4.9-5.21,2.22-10.25,4.53-16.17,3.79-2.75-.34-5-.76-6.79-3.31s-4.45-4.2-8.15-3.14a16.83,16.83,0,0,1-8.39-.13,17.81,17.81,0,0,0-12.52,1.33c-5.7,2.87-11.71-.65-17.63-.34-1.39.07-.92-1.15-.74-2.2.61-3.5,1-7-4-7.81a1.79,1.79,0,0,1-1.59-2.18c.31-1.4.58-2.85,2.25-3.53a12.43,12.43,0,0,1,6.35-.87,6,6,0,0,0,6.76-4c1-2.7-.12-5.44-2.44-7.57C200.78,437.65,198.91,437,198.26,435.08Z"/><path class="cls-1" d="M293.74,55.27a15.46,15.46,0,0,1-.82-7.63c.35-2.75-.36-5,4.83-4.59s11.37.19,15.95-3.9c1.61-1.44,3.46-.9,5.23-1,4-.13,6.35-2,6.09-6.07-.18-2.91.87-3.65,3.67-3.73,8.18-.21,8.11-.32,10.77,7.32s8,13.68,13.69,19.32c2,1.94,4,3.39,4.15,6.87.12,4.05,4.51,5,8.74,2.37,6.57-4.15,6.73-4.32,12.63,1.14,6.31,5.83,14.18,7.64,22.1,9.54l11.08,2.65c.42,1.9-1.27,1.78-2.14,2.26-6.27,3.44-12.6,6.76-17.7,11.92-7.39,7.48-18.25,9.26-26.15,16s-16,13-24.05,19.43a9.08,9.08,0,0,0-2.84,4.54,101.71,101.71,0,0,1-7.6,17.76c-3.76,6.74-12.45,8.64-17.3,2.68-6.64-8.17-14.69-8.89-24.21-9.11-13.86-.33-27.67-2.4-41.51-3.75a5.59,5.59,0,0,1-1.93-.44c-8.14-4.06-16.53-6.56-25.77-4.61-2.29.48-2.74-.54-2-2.87,2.87-8.69,2.44-9.3-6.44-13.56-5.53-2.65-10.09-6.41-14.48-10.43-8.35-7.65-16.46-15.56-24.68-23.34-1.55-1.47-2.86-3.23-5.12-3.84a3.37,3.37,0,0,1-2.68-2.7c-.55-4.85-2.85-9.17-4.08-13.8-.89-3.37,1.27-5.76,4.85-6.5,16.56-3.41,28.12-12.11,30.16-26.44.85-6,2.08-12.11,7.6-16.22a14.85,14.85,0,0,1,9.61-3.31c8.88.18,10.42-.92,13.88-9.22a3.4,3.4,0,0,1,3.64-2c4.87.18,9.31.58,11.49,6.47,1.33,3.59,5.53,5.53,7.92,8.82,7.67,10.58,10.13,23,12.58,35.32C265,61,267.34,71.37,267.25,82.13c0,4.76,5.31,3.31,8.09,4.84,2.3,1.26,2.58-1.13,3.31-2.51,3.18-6,9.21-8.31,14.74-11.24a1.89,1.89,0,0,1,2.64.7c1.81,3.31,3.92,1.63,6.2.65,3.2-1.36,1.52-3.4,1.09-5.39-.31-1.4-1-3.21.68-4.08,3.3-1.71,2.16-4,1.07-6.27-1.5-3.08-2.74-6.67-6.67-7.35C296.21,51.11,293.37,50.87,293.74,55.27Z"/><path class="cls-1" d="M508.43,102.93c4.56.69,5.32-1.6,6.77-4,4.19-7,3.09-12.88-1.58-19-2.09-2.75.67-7.34,4.27-7.32,2.92,0,4.22-.82,4.38-3.85.19-3.48,2.43-6.4,3.17-9.85.46-2.19,3.37-3.67,5.72-1.09a49.24,49.24,0,0,1,7.55,10.49c3.59,7,8.3,7.26,13.43,1,.74-.9,1.33-1.93,2.15-2.76,1.28-1.29,2.55-3.27,4.06-3.53,4.69-.81,9.28-1.19,11.63-6.34.33-.73,2.67-.8,3.15.2,2.78,5.84,7.64,3.88,12,3.24,3.29-.48,6.58-2.17,8,2.73.42,1.4,2,.75,3.1.75,3.78,0,7.56,0,12.16,0-1.6,1.68-2.89,2.85-3.95,4.21s-4.32,2.34-3,4.44c1.48,2.3,3.18,5.12,6.8,5.2a16.2,16.2,0,0,0,12.88-5.28c.56-.6,1.06-1.62,1.7-1.73,4.87-.78,9.37-1.64,9.57-8.14,0-1.33,2.31-.71,3.56-.76,6.18-.28,8.94-2.75,9.71-8.82.85-6.7,3.31-8.45,9.56-6.16,4.19,1.53,8.16,3.69,12.2,5.62,4.64,2.22,9.39,3.18,14.48,1.79a11.68,11.68,0,0,1,3.91-.53c7.77.63,9.95,3.09,10,11,0,2.5,0,5,0,7.5,0,8.55,0,8.5,7.79,11.73,12.62,5.26,26,6.62,39.42,7.61,3.64.27,3.56-2.32,3.9-4.45,1-6.26,2.36-12.29,6.15-17.65,2.23-3.16,4.36-6.23,7.71-8.32a15.82,15.82,0,0,0,6-6.51c1.67-3.36,3.85-3,5.33.07,2.36,4.86,5.44,9.64,3.2,15.53a3.16,3.16,0,0,0,.36,3.35c3.6,3.58,1.82,6.69-.48,10-4,5.76-6.14,12.05-5.14,19.2.43,3.07-.36,5.94-3.78,6.58-2.95.55-3.28,2.19-3.2,4.58.09,3-.4,6.07.13,9,.7,3.88-.56,5.24-4.31,6.35a97.59,97.59,0,0,1-31.31,4.39c-9.81-.33-18.56,4.32-27.86,6.42-5,1.12-10,2.31-14.94,3.44-2.26.51-4.28-.56-6.23-1.33-11.08-4.35-22.23-8.53-33.09-13.38-7-3.14-13.84-2.36-20.86-.86a3.61,3.61,0,0,0-3.06,2.87c-.7,4.09-3.87,5.83-6.94,7.82-11.42,7.41-22.76,14.94-34.18,22.37-2.39,1.55-4.37,3.08-2.28,6.51-4.87-.21-9,1.3-13,2.67-3.64,1.24-5.49.22-6.89-3.12-1.47-3.51-3.3-6.81-3.37-10.81,0-1.86-.64-3.68-3.54-3.74-5.16-.1-8.91-5.3-8-10.4,1.33-7.23-1.34-10.38-9-10.49-6-.09-12,.27-17.54-2.55-1.78-.9-3.42-1.59-1.54-3.9s.52-4.54-.26-6.6C513.21,113.5,514.56,107.51,508.43,102.93Z"/><path class="cls-1" d="M643.34,300.43c-5.57,10-10.89,7.37-15.08,2.83-2.5-2.71-1.45-6.48-1.06-9.58.67-5.43-2.2-8.29-6-11-2.58-1.84-4.43-2.09-6.4,1.11-2.53,4.12-5.79,7.51-10.87,9-3.68,1-4.35,5.64-1.32,8.83,2.58,2.71,3.28,4.64-.46,6.85-1.17.69-2.74,2.53-2.52,3.48,1.17,5.08-3,4.55-5.55,6-6.85,4-13.46,3.17-20.09-.34-9-4.75-19-4-28.58-5.23-1-.12-2,0-3,0-11.32-.48-22.63,1.55-33.54-5-7.68-4.58-15.79,1.77-15.74,10.74,0,2.72-.13,5.16-2,7.41a9.12,9.12,0,0,0-1.77,7.58c1.1,5.35-2.38,4.75-5.11,4-6.38-1.74-12.67-3.93-18.17-7.74-3.08-2.14-6.59-2.53-10-3.62-9.86-3.15-20.34-4.2-29.79-8.46-6.82-3.07-9.11-3-14.11,2.46-2.23,2.46-4.75,4.67-7,7.09-2.46,2.62-4.86,4.25-7.67.47-1.13-1.52-2.32-.49-3.53-.07-7,2.42-7.54,2.19-11-4.55-2.6-5.13-5-6.09-10.39-4-3.09,1.2-2.38-1.09-2.49-2.55-.27-3.36.81-6.85-2.49-9.67-2-1.72-3.58-2.36-5.38-.44-4,4.27-9,6.36-14.6,7.32-1,.17-2.28.62-2.32,1.6-.18,4.8-3.13,3.21-5.54,2.43-5.16-1.67-9.62-4.29-12.3-9.34-.62-1.17-.36-4.09-2.88-2.81-2.11,1.07-5.89,1-5.49,4.62.63,5.65-2.43,6.54-6.9,6.23-3.32-.23-7,.46-9.88-.76-5.28-2.24-10.09-5.5-16.21-5.14-1.29.07-1-1.46-1.15-2.38-.88-5.76.53-10.77,5-14.65,2.13-1.85,4.4-3.55,6.68-5.22a10.37,10.37,0,0,0,4.56-6.73c1-4.76,5.25-7.47,8.22-11a22.78,22.78,0,0,0,19.91-5c5.13-4.24,10.18-8.68,15.77-12.15,7.87-4.88,16.57-8.12,26.05-4.61,10.35,3.83,18.63.65,26.12-6.7,3.15-3.09,5-7,7.64-10.39,4-5.23,8.48-6,13.43-1.5a30.87,30.87,0,0,1,9.89,16.84c.72,3.36.82,6.82,2.44,10.1,4.48,9,12.24,15.2,20.15,20.24,8.87,5.65,22.68,4.37,24.41-10.17.42-3.56,2.17-7.43,6.16-8.39s8.78.61,10.68,3.85c3.77,6.41,9.7,7.53,15.85,9.68,8.3,2.91,14.52,0,19.7-5.47,8.29-8.68,15.4-8.55,24.44-4,9.74,4.89,20.31,5.88,31.38,4.36,10.19-1.39,19.54-6.26,30.09-6.12,5.88.08,10.37,2.05,12.43,7.61,1.31,3.54.71,7.25,1.16,10.85.74,5.9-.19,12.37,5.76,16.66C636.15,298.26,640.28,298,643.34,300.43Z"/><path class="cls-1" d="M375.94,364c7.39-1.4,9.86-4.89,10.24-11.43.3-5.29-2.36-10.39-.35-15.79,1.43-3.83,6.92-6.86,10.47-4.71,3.78,2.28,6.65,2.42,9.91-1s7.07-6,9.83-9.89c2.12-3,4.94-2.35,7.49-.78a29.6,29.6,0,0,0,13.6,4.08,27.18,27.18,0,0,1,10,2.86c3,1.51,6.12,2.64,9.56,2.16,2.61-.37,4.42,1.19,6.31,2.48a64.65,64.65,0,0,0,21.32,9,9.88,9.88,0,0,0,6.77-.57c2.25-1,3.56-2,2.54-4.83a8.75,8.75,0,0,1,1.94-9.68c1.88-1.9,1.47-4.25,1.56-6.55.12-2.84-1-6,2.74-7.78,4.15-2,8.42-2.22,11.59.85,3.53,3.42,7.29,4,11.77,3.86,12.47-.27,25-.28,37.35,1.19,7.57.9,14.37,4.75,21.49,7.34,2,.72,1.39,2.41.24,3.65-4.58,5-7.61,11.31-13.74,15-3.49,2.09-3.9,6.1.12,9.75,7.52,6.84,5.75,14.22,2.56,21.79-2,4.78-2.19,9.6-2.27,14.6-.07,4.35-.44,8.64-6.88,8.17-2.58-.19-5.72.45-5.13,4.72.15,1.1-.81,3-2.37,2.66-4.33-.85-7.54,1.49-11.2,3-2.37,1-5.12,1.73-8.18.5-5.54-2.23-8.85.28-9.4,6.45a15.26,15.26,0,0,0,0,4.49c1,4.73-1.44,5.49-5.16,4.6-3-.73-6.15-1.23-8.87-3.09-6.82-4.68-14.35-4.48-22-2.88-.65.14-1.7,0-1.9.38-3.23,6.09-3.58.16-4.24-1.2-2.22-4.58-5.16-7.05-10.32-9.21-9.09-3.8-17.53-1.2-26.19-.61-2.91.2-5.78,2.37-8.47,4-3.19,1.92-4.78,0-4.83-2.44-.2-9.33-6.73-14.64-12.38-20.52-1.84-1.91-4.05-3.45-6-5.25-2.56-2.36-4.64-4.54-1.28-8.23,2.24-2.46.05-5.79-.63-8.46-.54-2.1-3.3-.65-4.92-.32C397.91,368.47,387.59,366.21,375.94,364Z"/><path class="cls-1" d="M408.07,219.23c-4.64-6.18-4.48-6.37,3.57-8a27.08,27.08,0,0,1,7.86-.89c3.35.31,4.7-1.86,5.88-4.34,1.36-2.87-1.59-3.34-2.82-4.39-5-4.32-10.32-8.35-15.69-12.63,1.49-1.39,2.52-3,4-3.57,7-2.95,7.11-9.83,9.18-15.58a3.08,3.08,0,0,0-.09-2c-1.27-3.37-1.91-6.08.14-10,2.95-5.69-3.38-13.68-10.23-14.38a21.72,21.72,0,0,1-2.49-.05c-1.75-.39-4.52,1.25-5.05-1.49-.63-3.27,2.73-2.83,4.5-3.35,4-1.16,8.24-.72,12.38-1,7-.46,13.95-.06,20.93-1,5.86-.83,12-1.09,16.8,3.81a2.28,2.28,0,0,0,1.28.73c7.12.46,9.35,4,6.86,10.65-1,2.71,1.43,3,3,3.58,3.35,1.2,5.66,2.65,5.38,7-.25,3.84,2.5,6.54,5.74,8.1,4.57,2.19,2.85,4.16.21,6.32a9.17,9.17,0,0,1-2.16,1.16c-2.32,1-4.54,1.88-4.06,5.25s3.11,2.72,5.2,3.29c4.56,1.26,9.22.76,13.85,1,5.78.25,6.52,1.52,4.6,6.7a18.84,18.84,0,0,0-1.67,7.18c.15,4.9,1.29,8.15,6.32,11.3,6.49,4.07,14.26,3.12,20.42,7.49,2,1.41,2.19,1.83,1.67,3.94-.77,3.17-2.64,5.19-5.09,7.07-1.76,1.35-3.78,2.39-4.41,5.07-1,4.34-.11,7.33,3.49,10.31,4.18,3.45,8.48,6,13.85,6.75a23.37,23.37,0,0,0-8.91,6.94c-5.31,6.73-17.51,5.19-23.26-2.62-6.52-8.86-20.62-10.13-27.41-2.31A20,20,0,0,0,467,265.38c-.51,3.4-2,6.21-6,5.9-3.29-.25-6.47-.86-9-3.5s-5.67-5.12-8.5-7.68A19.18,19.18,0,0,1,437,247.6c-1.24-10.84-7.38-18.9-15.15-26.09C417.58,217.55,412.62,220.18,408.07,219.23Z"/><path class="cls-2" d="M408.07,219.23c4.55,1,9.51-1.68,13.79,2.28,7.77,7.19,13.91,15.25,15.15,26.09a19.18,19.18,0,0,0,6.46,12.5c2.83,2.57,5.85,4.94,8.5,7.68s5.72,3.25,9,3.5c4.06.31,5.53-2.5,6-5.9a20,20,0,0,1,4.75-10.24c6.78-7.83,20.89-6.55,27.41,2.31,5.75,7.81,17.95,9.35,23.26,2.62a23.37,23.37,0,0,1,8.91-6.94c1.75-.43,3.51-.85,4.65-2.45a26,26,0,0,1,16.41,2.78c16,8.08,31.8,6.27,48.07.49,8.66-3.08,18-3.58,26.38,1.87,7.35,4.8,8.26,12.76,9.18,20.57a28.92,28.92,0,0,1,.06,3c.13,10.2,5.14,13.8,15.41,11.37A102,102,0,0,1,669,287.91c8.85-.53,14.93,4.89,21.71,8.65,7.54,4.18,9.71,4.17,14.91-2.55,2-2.62,3.93-5.43,6.38-7.6,7.83-6.93,16.75-4.48,25.45-2.27a26.66,26.66,0,0,1,8.19,3.62c8.71,5.88,18.51,6.82,28.3,5.34,6.59-1,12.78-4.43,19.29-6.32,10.65-3.08,21.21-6.67,32.37-7.57,8.76-.71,15.92,2.79,21.86,8.92,4.26,4.39,8.92,7,15.38,6.36,3.41-.32,5.39-1.6,6.18-4.58,2.54-9.64,8.62-16.69,16.17-22.73,1.6-.28,3-2.5,4.84-.59.35,2.13,2.45,3.12,3.23,5-7.77,6.14-14.95,12.69-16.72,23.17-.1.6-.73,1.1-1,1.69-3.4,6.58-9.38,6.91-15.75,6.79-6.9-.13-12.25-2.89-16.91-7.93-6.94-7.5-15.12-9.51-25.31-6.34-13,4-26.08,7.38-38.92,12-9.49,3.43-20.06,2.42-29.7-2-6.89-3.17-13.3-7.4-21.17-8.3-5.25-.6-9.46.1-12.56,4.79-1.65,2.49-3.74,4.68-5.64,7-5.57,6.84-13.45,7.56-21.16,2.78-5.25-3.26-10.22-7.2-16.64-8.42-4.79-.91-9.29.09-13.77,1.19-4.83,1.2-9.6,2.6-14.64,2.44-3.05-2.41-7.18-2.17-10.4-4.49-6-4.3-5-10.76-5.76-16.66-.45-3.6.15-7.31-1.16-10.85-2.06-5.56-6.56-7.54-12.43-7.61-10.55-.14-19.9,4.73-30.09,6.12-11.07,1.51-21.64.53-31.38-4.36-9-4.54-16.15-4.67-24.44,4-5.18,5.42-11.4,8.38-19.7,5.47-6.15-2.15-12.08-3.27-15.85-9.68-1.91-3.24-6.57-4.85-10.68-3.85s-5.74,4.83-6.16,8.39c-1.73,14.55-15.54,15.82-24.41,10.17-7.91-5-15.66-11.19-20.15-20.24-1.63-3.28-1.72-6.74-2.44-10.1a30.87,30.87,0,0,0-9.89-16.84c-5-4.45-9.43-3.73-13.43,1.5-2.61,3.41-4.49,7.3-7.64,10.39-7.49,7.35-15.77,10.54-26.12,6.7-9.49-3.51-18.18-.27-26.05,4.61-5.59,3.47-10.64,7.91-15.77,12.15a22.78,22.78,0,0,1-19.91,5c-1.19-1.28-2.79-.91-4.25-1.08-7.29-6.72-11-15.2-12.32-24.9-.54-4-2.4-5.6-6.17-2.83-9,6.6-19,6.9-29.49,5-7.42-1.32-9.85.38-13.39,7.29q-6.14,12-12.47,23.9C229,282,218,287.23,213.1,286.56c-6.76-.91-13.56,0-20.4-.9-10.61-1.35-18.76-5.82-24.38-14.91-3.52-5.71-8.4-7-15-5.87-9.06,1.56-18.27.33-27.32-.86-5.1-.67-7.85,1.23-11.3,4.85-7.4,7.77-14.14,17.25-25.68,19.08-5.65.9-11.14,1.45-16.09,4.49-3.59.38-5.16,4.65-9,4.66l-.82-1.19L60,291.32c7.18-7.67,16.42-10.94,26.54-11.8a13,13,0,0,0,9.16-4.21c5.11-5.56,11.4-9.76,15.87-16.28,3.09-4.51,10.22-4.38,15.82-3.5,10,1.55,19.91.88,29.84.63,7-.18,12.75,1.82,16.27,7.54,6.48,10.53,15.71,14.49,27.64,13.8,3.27-.19,6.59.8,9.89.76,6.69-.07,12.1-2.34,15.18-9,3.49-7.52,7.43-14.84,11.22-22.22,3.55-6.91,11.11-11.26,18.39-9.4,10.8,2.76,20.54,1.63,29.38-5.36a5.1,5.1,0,0,0,4.07-1.79,8.58,8.58,0,0,0,2.87.69c5.67-.72,7,2.91,7.91,7.36,1.34,6.31,2.48,12.7,5.84,18.4,2.37,4,5.89,6.17,10.37,5.09,8.55-2.07,14.3-8.37,20.13-14.41,2.08.77,3-.64,3.79-2.11,12.25-5.79,24.4-9.81,38.23-4,3.67,1.53,9.18-.83,12.69-5,4.6-5.44,7.53-12.16,13-16.87Z"/><path class="cls-1" d="M323.65,309.94c5.25,7,11.6,11.33,19.94,12.21,2.23.24,4.71,1.09,4.63-2.91-.07-3.29,3.27-3.22,5.23-3.47,3.52-.45,6.36-1.41,8.33-4.52.59-.93,1.57-2,2.85-1.62,1.55.47,1.49,2,1.5,3.32a68.35,68.35,0,0,0,.7,6.9c.4,3.76,2.24,3.79,5.08,3.16,2.09-.46,4.41-3.18,6.29-.64,2.2,3,5.37,6.59,4.39,10.1-1.92,6.86-.38,13.5-.35,20.21,0,4.05-1.26,6.33-5.31,6.93a20.46,20.46,0,0,0-3.37.85c-2,.65-1.77,2.68-2.28,4.11-.68,1.93,1.47,2.09,2.48,2.34,9.88,2.53,19.75,5.38,30.16,3.47a22.3,22.3,0,0,1,4.48-.34c2.17,0,2.93,1.25,2.25,3.31-2.65,8-2.19,9.57,4.33,14.84,5.58,4.52,10.9,9.28,14,16,.52,1.11,1.77,2.3.6,3.63s-2.41.5-3.65,0-2.8-1-4.2-1.47c-3.52-1.2-5.67-.78-9.49,1.67-6.5,4.18-12.91,9.78-21.52,10.43-6.6.5-12.92,1.54-19.54-.94-4.2-1.57-7.94,2.38-11.93,3.76-10,3.44-19.94,6.7-30.79,4.22a8,8,0,0,1-5.83-4.56c-3-5.33-3.55-12-9.85-15.59-2-1.14-.1-5.16,1-7.29,3.55-6.82,2.41-14,1.9-21-.18-2.49.19-3.87,1.75-5.59,4.85-5.37,4.85-5.74.17-10.92-1.38-1.53-1.31-2,.41-3.24,5.73-4.1,5.56-7.41,3.12-14-3.32-9-4.54-18.5,1.26-27.23C323.61,314.2,322.62,312.47,323.65,309.94Z"/><path class="cls-1" d="M102.87,112.87c6.09-3.86,10.07-10.14,17.93-8.68.63.12,1.51-.59,2.15-1.09,8.94-6.87,18.14-5.81,27.53-1.05,6,3,6.84,2.77,10.1-3.11,2.35-4.23,4.42-10.26,8.23-11.42,4.23-1.29,7,5.19,10.59,8.06,5.82,4.68,11,10.12,16.49,15.24,4.87,4.56,10,8.69,16.32,11.17,3.53,1.39,4.44,3.49,3.11,7.41-2.48,7.32,0,10,7.91,8.6,6.2-1.13,11.67-.46,17.14,2.74,2.76,1.61,6.16,2.14,9.25,3.15-2.62,9.86-6.34,19.4-9.64,29.08-1.49,4.38-4.07,5.08-8,3.62-5.56-2.06-11.09-4.13-17-5.1-7.35-1.2-9.71.28-10.84,7.58-.84,5.4-4.29,6.87-8.86,3.71a6.74,6.74,0,0,1-2.06-2.16c-3.44-6.24-10.5-7.62-15.53-11.73-1.12-.91-2.58-.67-3.87-.53-4.26.46-7-2.44-10.48-3.87-6.82-2.84-10.37-9.79-16.35-12.09-5.71-2.19-11-7.37-18.51-5.1-4.6,1.39-9-1.16-11.81-5.53-2-3.05-4.44-5.81-6.53-8.81-2.36-3.38-4.32-6.84-3.13-11.36C107.93,118.11,106.64,115.11,102.87,112.87Z"/><path class="cls-1" d="M432.14,93.21c-2.12,1.89-4,1.84-5.77,2.07-7.64,1-11.22,6.19-9.12,13.37a13.19,13.19,0,0,1,.81,2.34c.23,2.64,3.68,5.21,1.08,7.75a16.16,16.16,0,0,1-10.15,4.6c-2,.15-4,.19-6,.45-1.48.2-3.05.54-2.84,2.68,0,.49.11,1.33-.12,1.44-8.52,4.25.46,10.46-1.66,15.72-1,2.57,3.06,3.22,5.38,3.63,1.94.34,4-.1,6,.14,5.82.7,8.22,5.7,5.07,10.62-1.26,2-.8,3.8-.22,5.68.93,3,.28,5.84.14,8.81-.31,6.69-5,9-9,12A114.86,114.86,0,0,0,394.86,193c-1.68,1.61-3.91,2.76-4.74-.63-5.55-22.76-21.16-34.61-42.88-40-3.63-.91-8.74-.41-10.42-3.35s2.69-6.25,3.41-9.79c1.27-6.21,5.26-10.2,10.16-14,7.86-6.14,14.94-13.41,23.59-18.38,6.71-3.85,14.11-6.48,20-11.82a78,78,0,0,1,21.37-13.51c5.39-2.39,8.51-.73,9.24,5.16C425.09,90.91,425.67,94.76,432.14,93.21Z"/><path class="cls-1" d="M288,402.44c4.06-4.81,7-8.68,7.83-13.81.54-3.37-.15-4.65-3.64-4.29-2.14.22-4.36-.21-6.49.08-9,1.23-17.64-2.88-26.63-2.09-1.35.12-2.09-.73-2.94-1.54-3.43-3.27-7.1-6-12.26-5.55-2.28.2-3.27-.79-2.9-3.29a5.87,5.87,0,0,0-3.39-6.17c-3.44-1.63-2.27-3.89-.88-5.49,2.44-2.81,5-6.12,9.59-4.77a2.26,2.26,0,0,0,3.15-1.47c1.36-3.63,6.52-4.9,5.94-9.89-.09-.74,2.42-2,3.87-2.67,1.93-.93,4.09-1.39,6-2.36,6-3.07,9.29-7.62,7.83-14.79-.65-3.21,0-5.14,4.1-3.35,2.88,1.24,5.67.9,4.91-3.62-.21-1.23.34-2.9,1.5-2.74,3.93.55,8.43-2.1,11.76,2,2.1,2.62,5.15,2.63,8.16,2.66,11.65.09,11.63.1,11.58,11.77,0,5.41-.63,10.8,3,15.68,2.47,3.29.14,5.88-2.83,7.67-4.72,2.84-5.32,4.2-1.32,7.73,3.8,3.34,2.31,5.48-.36,7.84-2.15,1.89-2.25,3.73-1.77,6.54,1.5,8.81-.33,17.39-3,25.79-.37,1.14-.85,1.77-2.52,1.44A80.81,80.81,0,0,0,288,402.44Z"/><path class="cls-1" d="M404.1,219.63c-5.51,4.72-8.44,11.43-13,16.87-3.51,4.15-9,6.51-12.69,5-13.83-5.77-26-1.75-38.23,4-3-4.18-6-8.33-8.84-12.56a6.32,6.32,0,0,1-1-3.25c-.13-7.79-.54-15.55,1.54-23.27,1.11-4.14,4.71-6.85,5.33-11.09.05-.36.65-1,.94-.93,5.78.56,6.33-4.44,8.22-7.83,3.86-6.95,7.85-13.86,11.12-21.09,2.15-4.76,4.87-4,8-2,10.35,6.84,17.5,16.11,20.61,28.25,1.94,7.57,5.22,8.79,11.39,4.14s6.1-4.6,12.38.41q5.26,4.2,10.49,8.44c.22.18.27.56.6,1.31a60.59,60.59,0,0,0-14.47,2.4C399.44,210.58,398.64,214.66,404.1,219.63Z"/><path class="cls-1" d="M336.35,247.63c-5.83,6-11.58,12.35-20.13,14.41-4.48,1.08-8-1.05-10.37-5.09-3.35-5.7-4.5-12.09-5.84-18.4-.94-4.45-2.23-8.08-7.91-7.36a8.58,8.58,0,0,1-2.87-.69c-1.94-6.45-6.08-12-6.94-19-1.15-9.35,8-32.29,18-34.13,8.07-1.48,15.63-3.57,20.93-10.57.89-1.18,2.8-1.85,4.36-2.22,2.86-.68,4-2.33,4.52-5.14,1-5.2,3.17-6.46,8.18-5.17s9.84,2.77,14.8,4c2.59.63,3.22,1.56,1.86,4.05-4.61,8.43-9.05,17-13.59,25.44-.45.85-1.25,2.31-1.7,2.24-5.63-.86-5.25,3.79-7.42,6.82-5.27,7.38-4.85,15.59-5.91,23.72-1.19,9.09,2.18,16.48,7.7,23.27A30.6,30.6,0,0,1,336.35,247.63Z"/><path class="cls-1" d="M401.13,133.64c.5-2,3-1.84,2.87-3.67-.19-2.84,1.62-2.74,3.53-2.64,5.5.3,9.79-2.67,14.15-5.37,2.58-1.6,3.35-3.72,2-6.72a54.54,54.54,0,0,1-2.62-8c-1.19-4.19.38-7,4.51-8a17.67,17.67,0,0,1,5.38-.85,4.58,4.58,0,0,0,5.14-4.3c.25-2.24-1.89-4.44-4.31-4.63-3.42-.26-4-2.6-3.49-4.76.72-3.36,0-5.41-3.33-6.3,4.59-4.79,10.19-5.34,16.23-5.17,14.45.42,28.89.63,42.64,6a32,32,0,0,1,7.4,4c3.93,2.9,7.85,2.88,12,.27,2.25-1.43,4.76-4.13,7.37-1s5.16,6.51,2.74,10.73c-1.51,2.64-1.56,6.83-6.67,6.41-2-.17-2.49,4.68-.62,6.3,1.49,1.29,2.9,2.33,3.28,4.66,1,5.91-.62,7.73-6.71,6.49a31.56,31.56,0,0,1-12.05-5.62c-4.06-2.91-8.16-3.11-12.52-.55-8.81,5.18-16,12.45-23.84,18.8-1.28,1-2.33,2.41-4.18,2.49-15.77.66-31.51,2.17-47.31,2C402.21,134.33,401.8,134,401.13,133.64Z"/><path class="cls-1" d="M325.79,159.64a40.7,40.7,0,0,0-13.74,10.48c-1.55,1.8-4.14,2-6.46,2.18-9.09.65-15.39,5.46-19.58,13.23-4.41,8.2-8.5,16.54-7,26.33.39,2.6-1,2.68-3,2.16-11.16-2.91-22.33-5.77-33.49-8.7a7.28,7.28,0,0,1-3.1-1.43c-8.37-7.87-18.6-12.69-28.94-17.07-5.42-2.29-2.13-5.74-2.17-8.6-.05-3.16,2.6-3.32,5.09-2.89,3.89.67,7.85,1,11.49,2.79a33,33,0,0,0,5.59,2c7.55,2.15,10.58.72,13.15-6.51,2.93-8.23,5.78-16.49,8.41-24.82,1-3.2,2.26-4.63,6.05-4.67,8.36-.07,16.39,2.28,24.69,2.56,4.8.16,9.65.85,14.44.5a12,12,0,0,1,10.88,4.62C312.62,157.3,318.16,160.4,325.79,159.64Z"/><path class="cls-1" d="M469,149.59c.68-3.35,3-6.79,1.13-8.8-1.71-1.83-5.49-1.72-8.35-2.49a12,12,0,0,1-1.85-.69c-5.3-2.42-5.42-3.2-1-6.89,5.89-4.87,11.75-9.79,17.75-14.53,4.31-3.41,8.56-3.94,13.49-.34,5.27,3.84,11.34,6.09,18.22,5,2.83-.45,4.9,0,2.46,3.64-2.08,3.11-.16,5,2.44,6.85,5.57,3.9,12,3.26,18.21,3.75,8.14.65,8.16.4,7.67,8.24-.32,5.05,5,12.21,9.75,12.9,1.39.2,2,.55,2.21,2a38.14,38.14,0,0,0,4,11.16c.82,1.64,1.45,3.16-1,3.85-1.74.49-3.61,2.06-4.84-1-.8-2-2.38-3.63-3.23-5.59-4.58-10.59-14.61-14.31-23.79-19.12-1.55-.81-2.84-.08-4.09.88-3.69,2.83-7.56,5.44-11.09,8.45-3,2.54-6.19,4.11-10,3.1-2.88-.76-4,.36-4.62,2.81-1,4-3.35,6.78-7.51,6.41-4.63-.41-8-4.85-7.82-9.77.16-3.44-1.15-5.15-4.3-6.17C471,152.67,468.34,152.23,469,149.59Z"/><path class="cls-1" d="M63.2,295.93l.82,1.19c-1.33.92-2.71,1.79-4,2.78s-2.41.67-3.2-.65c-.68-1.14-2.51-2-1.31-3.71.85-1.21,2.1-1.32,3.5-.82S61.8,295.53,63.2,295.93Z"/></g></g><style>.cls-1{transition: .3s; cursor: pointer;}.cls-1:hover{fill: #fb6b31;}</style></svg>