<?xml version="1.0" encoding="utf-8"?>
<!-- Generator: Adobe Illustrator 23.0.0, SVG Export Plug-In . SVG Version: 6.00 Build 0)  -->
<svg version="1.1" id="Warstwa_1" xmlns="http://www.w3.org/2000/svg" xmlns:xlink="http://www.w3.org/1999/xlink" x="0px" y="0px"
	 viewBox="0 0 1664 128" style="enable-background:new 0 0 1664 128;" xml:space="preserve">
<style type="text/css">
	.st0{fill:#CCCCCC;}
	.st1{fill:#999999;}
	.st2{fill:#6B4832;}
	.st3{fill:#F6F0CA;}
	.st4{fill:#EFE4AC;}
	.st5{fill:#666666;}
	.st6{fill:#FB6B31;}
</style>
<title>bg-glowna2</title>
<g>
	<polygon class="st0" points="0,0 64,0 128,64 128,128 	"/>
	<polygon class="st0" points="0,64 0,128 64,128 	"/>
</g>
<g>
	<path class="st1" d="M1088,0h-32l-32,32v32L1088,0z"/>
	<path class="st1" d="M1152,0h-32c-0.2,0.3-96,96-96,96v32L1152,0z"/>
	<path class="st1" d="M1056,128h32l64-64V32L1056,128z"/>
	<path class="st1" d="M1120,128h32l0,0V96C1151.8,96.1,1120.1,127.9,1120,128z"/>
</g>
<g>
	<path class="st2" d="M256,96V64L192,0h-32L256,96z"/>
	<path class="st2" d="M256,32V0l0,0h-32C224.1,0.1,255.9,31.9,256,32z"/>
	<polygon class="st2" points="256,128 128,128 128,0 	"/>
</g>
<g>
	<polygon class="st1" points="256,64 256,128 320,128 	"/>
	<polygon class="st1" points="384,64 384,0 320,0 	"/>
</g>
<g>
	<polygon class="st3" points="1184,0 1152,0 1152,32 1152,64 1184,64 1184,32 1216,32 1216,0 	"/>
	<rect x="1216" y="64" class="st3" width="64" height="64"/>
</g>
<g>
	<path class="st3" d="M640,96V0h-96v32h32v32h32v32H640z M608,32L608,32L608,32z"/>
	<path class="st3" d="M576,96h-32l0,0l0,0l0,0V64h-32l0,0v64h64V96z"/>
</g>
<g>
	<path class="st4" d="M1408,32v96h96V96h-32V64h-32V32H1408z M1440,96L1440,96L1440,96z"/>
	<path class="st4" d="M1472,32h32l0,0l0,0l0,0v32h32l0,0V0h-64V32z"/>
</g>
<g>
	<path class="st5" d="M1024,96V64L960,0h-32L1024,96z"/>
	<path class="st5" d="M1024,32V0l0,0h-32C992.1,0.1,1023.9,31.9,1024,32z"/>
	<polygon class="st5" points="1024,128 896,128 896,0 	"/>
</g>
<g>
	<path class="st1" d="M1280,32v32l64,64h32L1280,32z"/>
	<path class="st1" d="M1280,96v32l0,0h32C1311.9,127.9,1280.1,96.1,1280,96z"/>
	<polygon class="st1" points="1280,0 1408,0 1408,128 	"/>
</g>
<g>
	<path class="st0" d="M1664,32V0l0,0h-32C1632.1,0.1,1663.9,31.9,1664,32z"/>
	<polygon class="st0" points="1664,128 1536,128 1536,0 	"/>
</g>
<g>
	<path class="st0" d="M463.5,112.5L448,128h64V64l-47.6,47.6C464.1,112,463.8,112.2,463.5,112.5z"/>
	<path class="st0" d="M384,0L384,0v128h32V96l0,0h32V64l0,0h32V32l0,0h32V0H384z"/>
</g>
<g>
	<rect x="736" y="96" class="st6" width="32" height="32"/>
	<rect x="640" class="st6" width="64" height="64"/>
</g>
<g>
	<polygon class="st0" points="800,96 832,96 832,128 800,128 768,128 768,96 768,64 800,64 	"/>
	<polygon class="st0" points="896,32 896,64 864,64 864,32 832,32 832,0 864,0 896,0 	"/>
</g>
</svg>
