<?xml version="1.0" encoding="utf-8"?>
<!-- Generator: Adobe Illustrator 23.0.0, SVG Export Plug-In . SVG Version: 6.00 Build 0)  -->
<svg version="1.1" id="Warstwa_1" xmlns="http://www.w3.org/2000/svg" xmlns:xlink="http://www.w3.org/1999/xlink" x="0px" y="0px"
	 viewBox="0 0 1536 128" style="enable-background:new 0 0 1536 128;" xml:space="preserve">
<style type="text/css">
	.st0{fill:#F6F0CA;}
	.st1{fill:#CCCCCC;}
	.st2{fill:#999999;}
	.st3{fill:#666666;}
	.st4{fill:#FB6B31;}
	.st5{fill:#EFE4AC;}
	.st6{fill:#6B4832;}
</style>
<title>bg-glowna4</title>
<g>
	<path class="st0" d="M448,0h-32l-32,32v32L448,0z"/>
	<path class="st0" d="M512,0h-32c-0.2,0.3-96,96-96,96v32L512,0z"/>
	<path class="st0" d="M416,128h32l64-64V32L416,128z"/>
	<path class="st0" d="M480,128h32l0,0V96C511.8,96.1,480.1,127.9,480,128z"/>
</g>
<g>
	<path class="st1" d="M1408,32V0l0,0h-32C1376.1,0.1,1407.9,31.9,1408,32z"/>
	<polygon class="st1" points="1408,128 1280,128 1280,0 	"/>
</g>
<polygon class="st2" points="352,0 256,0 256,96 256,128 288,128 288,96 320,96 320,64 352,64 352,32 384,32 384,0 "/>
<g>
	<polygon class="st3" points="576,128 640,128 640,64 	"/>
	<polygon class="st3" points="576,0 512,0 512,64 	"/>
</g>
<g>
	<polygon class="st4" points="1184,64 1184,96 1216,96 1216,128 1184,128 1152,128 1152,96 1152,64 	"/>
	<polygon class="st4" points="1248,0 1280,0 1280,32 1280,64 1248,64 1248,32 1216,32 1216,0 	"/>
</g>
<g>
	<polygon class="st1" points="768,64 768,128 832,128 	"/>
	<polygon class="st1" points="896,64 896,0 832,0 	"/>
	<rect x="800" y="32" class="st1" width="64" height="64"/>
</g>
<g>
	<polygon class="st5" points="960,0 1024,0 1024,64 	"/>
	<polygon class="st5" points="896,64 896,0 960,0 	"/>
	<polygon class="st5" points="960,128 896,128 896,64 	"/>
	<polygon class="st5" points="1024,64 1024,128 960,128 	"/>
	<rect x="928" y="32" class="st5" width="64" height="64"/>
</g>
<g>
	<rect x="1408" y="96" class="st5" width="32" height="32"/>
	<rect x="1472" class="st5" width="64" height="64"/>
</g>
<g>
	<rect x="1024" y="96" class="st6" width="32" height="32"/>
	<rect x="1056" y="64" class="st6" width="32" height="32"/>
	<rect x="1088" class="st6" width="64" height="64"/>
</g>
<g>
	<polygon class="st4" points="32,128 128,128 128,32 128,0 96,0 96,32 64,32 64,64 32,64 32,96 0,96 0,128 	"/>
	<rect class="st4" width="32" height="31.5"/>
</g>
<g>
	<polygon class="st1" points="704,0 672,0 672,32 640,32 640,64 704,64 	"/>
	<rect x="736" class="st1" width="32" height="64"/>
	<rect x="704" y="96" class="st1" width="32" height="32"/>
</g>
<g>
	<rect x="128" y="64" class="st6" width="64" height="64"/>
	<rect x="192" class="st6" width="64" height="64"/>
</g>
</svg>
