<?xml version="1.0" encoding="utf-8"?>
<!-- Generator: Adobe Illustrator 23.0.0, SVG Export Plug-In . SVG Version: 6.00 Build 0)  -->
<svg version="1.1" id="Warstwa_1" xmlns="http://www.w3.org/2000/svg" xmlns:xlink="http://www.w3.org/1999/xlink" x="0px" y="0px"
	 viewBox="0 0 1664 128" style="enable-background:new 0 0 1664 128;" xml:space="preserve">
<style type="text/css">
	.st0{fill:#CCCCCC;}
	.st1{fill:#999999;}
	.st2{fill:#6B4832;}
	.st3{fill:#F6F0CA;}
	.st4{fill:#EFE4AC;}
	.st5{fill:#666666;}
	.st6{fill:#FB6B31;}
</style>
<title>bg-glowna2</title>
<g>
	<polygon class="st0" points="0,0 64,0 128,64 128,128 	"/>
	<polygon class="st0" points="0,64 0,128 64,128 	"/>
</g>
<g>
	<path class="st1" d="M1216,0h-32l-32,32v32L1216,0z"/>
	<path class="st1" d="M1280,0h-32c-0.2,0.3-96,96-96,96v32L1280,0z"/>
	<path class="st1" d="M1184,128h32l64-64V32L1184,128z"/>
	<path class="st1" d="M1248,128h32l0,0V96C1279.8,96.1,1248.1,127.9,1248,128z"/>
</g>
<g>
	<path class="st2" d="M384,96V64L320,0h-32L384,96z"/>
	<path class="st2" d="M384,32V0l0,0h-32C352.1,0.1,383.9,31.9,384,32z"/>
	<polygon class="st2" points="384,128 256,128 256,0 	"/>
</g>
<g>
	<polygon class="st1" points="384,64 384,128 448,128 	"/>
	<polygon class="st1" points="512,64 512,0 448,0 	"/>
</g>
<g>
	<polygon class="st3" points="1312,0 1280,0 1280,32 1280,64 1312,64 1312,32 1344,32 1344,0 	"/>
	<rect x="1344" y="64" class="st3" width="64" height="64"/>
</g>
<g>
	<path class="st3" d="M768,96V0h-96v32h32v32h32v32H768z M736,32L736,32L736,32z"/>
	<path class="st3" d="M704,96h-32l0,0l0,0l0,0V64h-32l0,0v64h64V96z"/>
</g>
<g>
	<path class="st4" d="M128,32v96h96V96h-32V64h-32V32H128z M160,96L160,96L160,96z"/>
	<path class="st4" d="M192,32h32l0,0l0,0l0,0v32h32l0,0V0h-64V32z"/>
</g>
<g>
	<path class="st5" d="M1152,96V64l-64-64h-32L1152,96z"/>
	<path class="st5" d="M1152,32V0l0,0h-32C1120.1,0.1,1151.9,31.9,1152,32z"/>
	<polygon class="st5" points="1152,128 1024,128 1024,0 	"/>
</g>
<g>
	<path class="st1" d="M1408,32v32l64,64h32L1408,32z"/>
	<path class="st1" d="M1408,96v32l0,0h32C1439.9,127.9,1408.1,96.1,1408,96z"/>
	<polygon class="st1" points="1408,0 1536,0 1536,128 	"/>
</g>
<g>
	<path class="st0" d="M1664,32V0l0,0h-32C1632.1,0.1,1663.9,31.9,1664,32z"/>
	<polygon class="st0" points="1664,128 1536,128 1536,0 	"/>
</g>
<g>
	<path class="st0" d="M591.5,112.5L576,128h64V64l-47.6,47.6C592.1,112,591.8,112.2,591.5,112.5z"/>
	<path class="st0" d="M512,0L512,0v128h32V96l0,0h32V64l0,0h32V32l0,0h32V0H512z"/>
</g>
<g>
	<rect x="864" y="96" class="st6" width="32" height="32"/>
	<rect x="768" class="st6" width="64" height="64"/>
</g>
<g>
	<polygon class="st0" points="928,96 960,96 960,128 928,128 896,128 896,96 896,64 928,64 	"/>
	<polygon class="st0" points="1024,32 1024,64 992,64 992,32 960,32 960,0 992,0 1024,0 	"/>
</g>
</svg>
