<?xml version="1.0" encoding="utf-8"?>
<!-- Generator: Adobe Illustrator 23.0.0, SVG Export Plug-In . SVG Version: 6.00 Build 0)  -->
<svg version="1.1" id="Warstwa_1" xmlns="http://www.w3.org/2000/svg" xmlns:xlink="http://www.w3.org/1999/xlink" x="0px" y="0px"
	 viewBox="0 0 1536 128" style="enable-background:new 0 0 1536 128;" xml:space="preserve">
<style type="text/css">
	.st0{fill:#F6F0CA;}
	.st1{fill:#FB6B31;}
	.st2{fill:#6B4832;}
	.st3{fill:#999999;}
	.st4{fill:#CCCCCC;}
	.st5{fill:#666666;}
</style>
<title>bg-glowna1</title>
<g>
	<path class="st0" d="M79.5,15.5L64,0h64v64L80.4,16.3C80.1,16,79.8,15.8,79.5,15.5z"/>
	<path class="st0" d="M0,128L0,128V0h32v32l0,0h32v32l0,0h32v32l0,0h32v32H0z"/>
</g>
<g>
	<polygon class="st1" points="1504,0 1472,0 1472,32 1504,32 1504,64 1536,64 1536,32 1536,0 	"/>
	<polygon class="st1" points="1504,96 1504,64 1472,64 1472,32 1440,32 1440,0 1408,0 1408,32 1408,128 1504,128 1536,128 1536,96 	
		"/>
</g>
<g>
	<polygon class="st2" points="1088,0 1056,0 1056,32 1024,32 1024,64 1088,64 	"/>
	<polygon class="st2" points="1088,128 1120,128 1120,96 1152,96 1152,64 1088,64 	"/>
</g>
<g>
	<path class="st3" d="M1280,64V32l-32-32h-32L1280,64z"/>
	<path class="st3" d="M1280,128V96c-0.3-0.2-96-96-96-96h-32L1280,128z"/>
	<path class="st3" d="M1152,32v32l64,64h32L1152,32z"/>
	<path class="st3" d="M1152,96v32l0,0h32C1183.9,127.9,1152.1,96.1,1152,96z"/>
</g>
<g>
	<path class="st4" d="M896,32v32l64,64h32L896,32z"/>
	<path class="st4" d="M896,96v32l0,0h32C927.9,127.8,896.1,96.1,896,96z"/>
	<polygon class="st4" points="896,0 1024,0 1024,128 	"/>
</g>
<g>
	<path class="st0" d="M640,96V0h-96v32h32v32h32v32H640z M608,32L608,32L608,32z"/>
	<path class="st0" d="M576,96h-32l0,0l0,0l0,0V64h-32l0,0v64h64V96z"/>
</g>
<g>
	<path class="st1" d="M480,0h-96v96h32V64h32V32h32V0z M416,32L416,32L416,32z"/>
	<path class="st1" d="M480,64v32l0,0l0,0l0,0h-32v32l0,0h64V64H480z"/>
</g>
<g>
	<path class="st4" d="M192,0h-64v64L192,0z"/>
	<path class="st4" d="M256,128V0l0,0c-0.8,0.9-125.8,125.8-128,128H256z"/>
</g>
<polygon class="st4" points="768,0 640,0 640,128 704,64 768,128 "/>
<g>
	<path class="st5" d="M768,32V0l0,0h32C799.9,0.2,768.1,31.9,768,32z"/>
	<polygon class="st5" points="768,128 896,128 896,0 	"/>
</g>
<g>
	<polygon class="st3" points="320,128 256,128 256,64 	"/>
	<polygon class="st3" points="320,0 384,0 384,64 	"/>
	<rect x="288" y="32" class="st3" width="64" height="64"/>
</g>
<polygon class="st5" points="1312,32 1312,64 1344,64 1344,96 1376,96 1376,128 1408,128 1408,96 1408,0 1312,0 1280,0 1280,32 "/>
</svg>
