<svg xmlns="http://www.w3.org/2000/svg" viewBox="0 0 1920 384" preserveAspectRatio="xMinYMin"><defs><style>.cls-1{fill:#f6f0ca;}.cls-2{fill:#ccc;}.cls-3{fill:#999;}.cls-4{fill:#666;}.cls-5{fill:#fb6b31;}.cls-6{fill:#efe4ac;}.cls-7{fill:#6b4832;}</style></defs><title>bg-glowna4m</title><g id="Warstwa_2" data-name="Warstwa 2"><g id="Warstwa_1-2" data-name="Warstwa 1"><path class="cls-1" d="M672,0H624L576,48V96Z"/><path class="cls-1" d="M768,0H720c-.29.37-144,144-144,144v48Z"/><path class="cls-1" d="M624,192H672l96-96V48Z"/><path class="cls-1" d="M720,192h48l0,0V144C767.78,144.16,720.12,191.86,720,192Z"/><path class="cls-2" d="M192,240V192l0,0H144C144.16,192.22,191.86,239.89,192,240Z"/><polygon class="cls-2" points="192 384 0 384 0 192 192 384"/><polygon class="cls-3" points="528 0 384 0 384 144 384 192 432 192 432 144 480 144 480 96 528 96 528 48 576 48 576 0 528 0"/><polygon class="cls-4" points="864 192 960 192 960 96 864 192"/><polygon class="cls-4" points="864 0 768 0 768 96 864 0"/><polygon class="cls-5" points="1872 288 1872 336 1824 336 1824 384 1872 384 1920 384 1920 336 1920 288 1872 288"/><polygon class="cls-5" points="1776 192 1728 192 1728 240 1728 288 1776 288 1776 240 1824 240 1824 192 1776 192"/><polygon class="cls-2" points="1152 96 1152 192 1248 192 1152 96"/><polygon class="cls-2" points="1344 96 1344 0 1248 0 1344 96"/><rect class="cls-2" x="1200" y="48" width="96" height="96" transform="translate(2496 192) rotate(180)"/><polygon class="cls-6" points="1632 0 1728 0 1728 96 1632 0"/><polygon class="cls-6" points="1536 96 1536 0 1632 0 1536 96"/><polygon class="cls-6" points="1632 192 1536 192 1536 96 1632 192"/><polygon class="cls-6" points="1728 96 1728 192 1632 192 1728 96"/><rect class="cls-6" x="1584" y="48" width="96" height="96" transform="translate(1728 -1536) rotate(90)"/><rect class="cls-6" x="192" y="336" width="48" height="48" transform="translate(576 144) rotate(90)"/><rect class="cls-6" x="288" y="192" width="96" height="96" transform="translate(576 -96) rotate(90)"/><rect class="cls-7" x="1728" y="144" width="48" height="48" transform="translate(1920 -1584) rotate(90)"/><rect class="cls-7" x="1776" y="96" width="48" height="48" transform="translate(1920 -1680) rotate(90)"/><rect class="cls-7" x="1824" width="96" height="96" transform="translate(1920 -1824) rotate(90)"/><rect class="cls-5" width="48" height="47.19" transform="translate(48 47.19) rotate(180)"/><polygon class="cls-5" points="144 0 144 48 96 48 96 96 48 96 48 144 0 144 0 192 48 192 192 192 192 48 192 0 144 0"/></g></g></svg>