<svg xmlns="http://www.w3.org/2000/svg" viewBox="0 0 1920 256" preserveAspectRatio="xMinYMin"><defs><style>.cls-1{fill:#f6f0ca;}.cls-2{fill:#ccc;}.cls-3{fill:#999;}.cls-4{fill:#666;}.cls-5{fill:#fb6b31;}.cls-6{fill:#efe4ac;}.cls-7{fill:#6b4832;}</style></defs><title>bg-glowna4</title><g id="Warstwa_2" data-name="Warstwa 2"><g id="Warstwa_1-2" data-name="Warstwa 1"><path class="cls-1" d="M576,0H544L512,32V64Z"/><path class="cls-1" d="M640,0H608c-.19.25-96,96-96,96v32Z"/><path class="cls-1" d="M544,128h32l64-64V32Z"/><path class="cls-1" d="M608,128h32l0,0V96C639.85,96.1,608.08,127.91,608,128Z"/><path class="cls-2" d="M128,160V128l0,0H96C96.1,128.15,127.91,159.92,128,160Z"/><polygon class="cls-2" points="128 256 0 256 0 128 128 256"/><polygon class="cls-3" points="480 0 384 0 384 96 384 128 416 128 416 96 448 96 448 64 480 64 480 32 512 32 512 0 480 0"/><polygon class="cls-4" points="960 128 1024 128 1024 64 960 128"/><polygon class="cls-4" points="960 0 896 0 896 64 960 0"/><polygon class="cls-5" points="1824 192 1824 224 1856 224 1856 256 1824 256 1792 256 1792 224 1792 192 1824 192"/><polygon class="cls-5" points="1888 128 1920 128 1920 160 1920 192 1888 192 1888 160 1856 160 1856 128 1888 128"/><polygon class="cls-2" points="1280 64 1280 128 1344 128 1280 64"/><polygon class="cls-2" points="1408 64 1408 0 1344 0 1408 64"/><rect class="cls-2" x="1312" y="32" width="64" height="64" transform="translate(2688 128) rotate(180)"/><polygon class="cls-6" points="1728 0 1792 0 1792 64 1728 0"/><polygon class="cls-6" points="1664 64 1664 0 1728 0 1664 64"/><polygon class="cls-6" points="1728 128 1664 128 1664 64 1728 128"/><polygon class="cls-6" points="1792 64 1792 128 1728 128 1792 64"/><rect class="cls-6" x="1696" y="32" width="64" height="64" transform="translate(1792 -1664) rotate(90)"/><rect class="cls-6" x="128" y="224" width="32" height="32" transform="translate(384 96) rotate(90)"/><rect class="cls-6" x="192" y="128" width="64" height="64" transform="translate(384 -64) rotate(90)"/><rect class="cls-7" x="1792" y="96" width="32" height="32" transform="translate(1920 -1696) rotate(90)"/><rect class="cls-7" x="1824" y="64" width="32" height="32" transform="translate(1920 -1760) rotate(90)"/><rect class="cls-7" x="1856" width="64" height="64" transform="translate(1920 -1856) rotate(90)"/><polygon class="cls-5" points="32 128 128 128 128 32 128 0 96 0 96 32 64 32 64 64 32 64 32 96 0 96 0 128 32 128"/><rect class="cls-5" width="32" height="31.46" transform="translate(32 31.46) rotate(180)"/><polygon class="cls-2" points="1088 0 1056 0 1056 32 1024 32 1024 64 1088 64 1088 0"/><rect class="cls-2" x="1120" width="32" height="64"/><rect class="cls-2" x="1088" y="96" width="32" height="32"/><rect class="cls-7" x="128" y="64" width="64" height="64" transform="translate(320 192) rotate(180)"/><rect class="cls-7" x="192" width="64" height="64" transform="translate(448 64) rotate(180)"/></g></g></svg>