<svg xmlns="http://www.w3.org/2000/svg" viewBox="0 0 241 241"><defs><style>.cls-1{fill:#fb6b31;}</style></defs><title>naprawa</title><g id="Warstwa_2" data-name="Warstwa 2"><g id="Warstwa_1-2" data-name="Warstwa 1"><path class="cls-1" d="M205.71,35.29A120.5,120.5,0,1,0,35.29,205.71,120.5,120.5,0,1,0,205.71,35.29ZM120.5,235.21A114.71,114.71,0,1,1,235.21,120.5,114.84,114.84,0,0,1,120.5,235.21Z"/><path class="cls-1" d="M85.5,97c-5.57,0-9.8,1.72-12.57,5.1-4.64,5.67-3.05,13.8-3,14.15a2.9,2.9,0,0,0,5.68-1.14c0-.06-1.09-5.85,1.81-9.36,1.61-2,4.33-2.95,8.06-2.95a2.9,2.9,0,0,0,0-5.79Z"/><path class="cls-1" d="M189.69,105.46a2.88,2.88,0,0,0-1.49-1.64l-2-1,1-2.13a2.9,2.9,0,0,0-1.38-3.86l-2-1,1-2.13a2.88,2.88,0,0,0,.11-2.21,2.92,2.92,0,0,0-1.49-1.64l-8.78-4.15-.37-.16a2.83,2.83,0,0,0-1.23-.19H150.91c-3.45-1-7.45-1.25-12.54-1.3V79.34H154.9a2.9,2.9,0,0,0,2.9-2.9V59.65a2.9,2.9,0,0,0-2.9-2.9H105.53a2.9,2.9,0,0,0-2.9,2.9V76.44a2.9,2.9,0,0,0,2.9,2.9H122v4.77c-5.14,0-10.93.23-15.52,2.39a2.88,2.88,0,0,0-2.22-1.06H87.5c-11.75,0-18.88,5-22.8,9.13-8.26,8.78-8,19.91-7.95,21.15v17.75H51.49a2.9,2.9,0,0,0-2.9,2.9v14.46a2.9,2.9,0,0,0,2.9,2.9H93.3a2.9,2.9,0,0,0,2.9-2.9V136.37a2.9,2.9,0,0,0-2.9-2.9H90.4V118h12.13a32,32,0,0,0,54.94.55h25.22a2.89,2.89,0,0,0,2.81-2.19l4.08-8.66A2.88,2.88,0,0,0,189.69,105.46ZM108.42,62.55H152v11H108.42Zm24.15,16.79v4.82h-4.83V79.34ZM90.4,147.93h-36v-8.67h36Zm-2.9-35.75a2.9,2.9,0,0,0-2.9,2.9v18.39H62.55v-17.8c0-.08,0-.16,0-.24a24.79,24.79,0,0,1,6.39-16.89c3.13-3.33,8.9-7.3,18.58-7.3h13.31c-1.68,2.52-2.69,5.93-2.69,10.56a31.88,31.88,0,0,0,1.74,10.38ZM130.16,128a26.27,26.27,0,0,1-26.24-26.24c0-10.1,5.15-11.9,19.64-11.9h.63a4,4,0,0,0,.65.06h10.62a2.89,2.89,0,0,0,.55-.05h.71c4.39,0,9.38.09,13,1.18h0c2.4.73,4.67,1.92,5.86,5.07a16,16,0,0,1,.85,5.65A26.24,26.24,0,0,1,130.16,128Zm50.3-15.81H161a32.24,32.24,0,0,0,1.71-10.44,20,20,0,0,0-2.28-10.09h12l5.17,2.44-.79,1.67a3.4,3.4,0,0,0,1.62,4.52l1.59.75-.79,1.68a3.4,3.4,0,0,0,1.62,4.52l1.59.75Z"/><path class="cls-1" d="M236.48,118.53a2.9,2.9,0,1,0,0-5.79H215.42L209.7,110l1-2.13a2.9,2.9,0,0,0-1.38-3.86l-2-1,1-2.13a2.9,2.9,0,0,0-1.38-3.86l-2-1,2.32-4.92h24.36a2.9,2.9,0,1,0,0-5.79H205.28a2.89,2.89,0,0,0-2.81,2.19l-4.08,8.66a2.92,2.92,0,0,0-.11,2.21,2.88,2.88,0,0,0,1.49,1.64l2,1-1,2.13a2.9,2.9,0,0,0,1.38,3.86l2,1-1,2.13A2.9,2.9,0,0,0,204.6,114l8.78,4.15a3.11,3.11,0,0,0,.38.17,2.88,2.88,0,0,0,1.21.18h21.51v0Z"/><path class="cls-1" d="M203.15,190.63H191.67l-5.5-9.53,5.5-9.53h11.48a2.9,2.9,0,0,0,2.19-4.8,23.4,23.4,0,0,0-18.67-9.2A23.71,23.71,0,0,0,166.49,169l-.15.24H152.14l0-7.77a9.94,9.94,0,0,0-9.94-9.88h-1.33a9.89,9.89,0,0,0-6.88,2.86,9.93,9.93,0,0,0-4.88-1.29h-1.33a9.84,9.84,0,0,0-7,2.93c-.15.15-.28.31-.42.47a9.93,9.93,0,0,0-4.34-1h-1.33a9.86,9.86,0,0,0-8.29,4.54,9.93,9.93,0,0,0-3.46-.63h-1.33a9.91,9.91,0,0,0-9.87,9.76h-3l-.15-.24a23.71,23.71,0,0,0-20.17-11.41,23.37,23.37,0,0,0-18.79,9.37A2.9,2.9,0,0,0,52,171.57H63.44l5.5,9.53-5.5,9.53H52a2.9,2.9,0,0,0-2.31,4.64,23.36,23.36,0,0,0,18.79,9.37,23.7,23.7,0,0,0,20.2-11.46l.15-.24h3.65a9.92,9.92,0,0,0,.8,1.58c0,.57.06,1.13.13,1.69l4.26,32.21a12.77,12.77,0,0,0,12.29,11.12h0l17.18-.06a5,5,0,0,0,1.28.2l10.17,0c6.59,0,12.74-7.95,19.37-24.94,3.59-9.19,6.16-18.18,7.14-21.78h1.25l.15.24a23.7,23.7,0,0,0,20.2,11.46,23.36,23.36,0,0,0,18.79-9.37,2.9,2.9,0,0,0-2.31-4.64Zm-62.29-33.27h1.33a4.13,4.13,0,0,1,4.14,4.1l0,14.6-9.1,0h-.46l0-14.6a4.07,4.07,0,0,1,.38-1.72A4.13,4.13,0,0,1,140.86,157.37Zm-13.08,1.58h1.33a4.11,4.11,0,0,1,1.72.37l.35.16-.06.38c0,.13,0,.26,0,.39s0,.2,0,.31c0,.32-.05.65,0,1l0,14.61-.44.05-.65.11-.11,0c-.29.06-.58.13-.86.22l-.12,0q-.36.11-.7.25l-.19.08-.61.29-.21.11-.55.33-.21.14c-.18.12-.35.26-.53.39l-.18.14c-.23.19-.44.39-.66.6l-.41.44-.87,1-.06-17.27a4.13,4.13,0,0,1,4.1-4.13Zm-2.59,33.41.38.34.35.29.39.29.42.27.38.23.51.26.34.16c.2.09.4.16.61.24l.28.1c.23.07.47.14.71.19l.23.06c.26.05.52.09.78.13l.19,0a9.54,9.54,0,0,0,1,.05h1.6v1.44a4.12,4.12,0,0,1-.09.86l-.16.11-.24.17c-.57.4-1.13.81-1.67,1.23l-.13.1c-.58.45-1.14.91-1.68,1.38l-.18.15-.14.12h-1.15c-.11,0-.21,0-.32,0a4.19,4.19,0,0,1-.49,0l-.05,0a4.1,4.1,0,0,1-3.24-3.86v-.19l0-5.6.88,1,.23.24Zm-10.49-31H116a4.06,4.06,0,0,1,1.6.32l.34.14,0,.36s0,0,0,0c0,.29,0,.59,0,.88h0v1.77l.1,30.41c-.11.06-.22.13-.34.17a4.08,4.08,0,0,1-.47.14l-.27.08a4.06,4.06,0,0,1-.75.08h-1.37l-.24,0c-.13,0-.26,0-.39,0h0a4.14,4.14,0,0,1-3.2-2.63h0a4.06,4.06,0,0,1-.27-1.42l-.08-26.18a4.15,4.15,0,0,1,.06-.69A4.1,4.1,0,0,1,114.69,161.33Zm-16,5.14a4.09,4.09,0,0,1,2.9-1.22h1.33a4.09,4.09,0,0,1,1.55.3l.31.13.08,26c0,.32,0,.63.05.95,0,0,0,0,0,.06l0,.33a4,4,0,0,1-.8.33c-.1,0-.2.07-.3.09a4.1,4.1,0,0,1-.83.09h-1.36a4,4,0,0,1-.49-.06,4.13,4.13,0,0,1-.45-.05,4,4,0,0,1-.51-.18c-.12,0-.25-.08-.37-.13a4.1,4.1,0,0,1-.66-.43l-.13-.08a4.25,4.25,0,0,1-.66-.69,4.1,4.1,0,0,1-.83-2.1c0-.12,0-.24,0-.37l-.06-20A4.09,4.09,0,0,1,98.71,166.46ZM87.05,187.15a2.91,2.91,0,0,0-2.61,1.64,17.85,17.85,0,0,1-16,10.06,17.65,17.65,0,0,1-7.09-1.46l-2.2-1h6A2.91,2.91,0,0,0,67.62,195l7.17-12.43a2.91,2.91,0,0,0,0-2.9l-7.17-12.43a2.9,2.9,0,0,0-2.51-1.45h-6l2.2-1a17.79,17.79,0,0,1,23.07,8.55A2.91,2.91,0,0,0,87,175h4.71l0,12.15Zm22.86,46.61a7,7,0,0,1-6.54-6.09L99.6,199.11l.65.09h.11a10,10,0,0,0,1.32.1h1.37a9.76,9.76,0,0,0,2.72-.41l.34-.09.42-.16c.19-.07.37-.14.55-.22h0l.32-.15.25.25.1.09q.27.27.55.51l.12.11a10,10,0,0,0,1.57,1.07l.07,0a9.9,9.9,0,0,0,2.68,1l.12,0q.39.08.79.12l.18,0c.3,0,.61,0,.91,0h1.37a9.87,9.87,0,0,0,1.16-.08l.33,0q.47-.07.93-.19l.17,0,.37-.1.19.34.05.07a9.89,9.89,0,0,0,.68,1l.23.3a9.89,9.89,0,0,0,.83.89l.25.22a9.85,9.85,0,0,0,.86.68l.2.15a9.83,9.83,0,0,0,1.14.65l.11.06.55.26-.36.49-.13.19c-.33.45-.65.9-.94,1.36l-.05.08c-.3.46-.57.92-.83,1.38l-.1.17c-.27.49-.52,1-.76,1.45l0,.06A26.06,26.06,0,0,0,118.62,226l0,.11c0,.26.08.52.12.76.09.49.2,1,.31,1.45l.07.3a24,24,0,0,0,.93,2.88l0,.11c.22.55.46,1.09.72,1.61l.24.5Zm49.92-43.64a226.27,226.27,0,0,1-7.3,22.5c-7.89,20.21-13,21.25-14,21.25l-10,0-.21-.13-.26-.2-.17-.15c-.11-.11-.23-.23-.35-.36l-.18-.21c-.12-.15-.25-.32-.38-.5l-.2-.3c-.11-.16-.22-.34-.33-.52l-.27-.49c-.1-.19-.2-.38-.3-.58s-.18-.38-.26-.57-.23-.54-.33-.83l-.16-.44c-.13-.39-.26-.8-.38-1.24l0-.16c-.13-.52-.25-1.07-.35-1.65a19.79,19.79,0,0,1-.18-4.92c.37-4.27,2.23-9.78,8-15.13a39,39,0,0,1,5.07-3.95l1.23-.79.15-.09,1.08-.64a2.91,2.91,0,0,0,1.23-1.4l.52-1.25.72-1.74h0l1-2.46a2.9,2.9,0,0,0-2.68-4l-8.86,0a3.64,3.64,0,0,1-2.58-6.22,3.62,3.62,0,0,1,2.57-1.08h2.24l15.36,0h.81l.07,0,.47.17h0l.09,0c2.81,1.12,9.18,4.92,9.09,7.88Zm33.93,7.27a17.66,17.66,0,0,1-7.09,1.46,17.85,17.85,0,0,1-16-10.06,2.91,2.91,0,0,0-2.61-1.64h-2.89l-.13-.31-.09-.2c-.08-.18-.17-.37-.26-.55s-.14-.27-.21-.41-.24-.4-.36-.6l-.23-.36c-.16-.23-.33-.45-.51-.68l-.21-.27c-.26-.32-.54-.63-.84-.94s-.62-.61-1-.91l-.21-.19c-.33-.29-.67-.57-1-.84l0,0c-.36-.28-.74-.55-1.12-.81l-.35-.24-.76-.5c-.4-.25-.8-.5-1.2-.73l-.12-.07a28.22,28.22,0,0,0-4.05-1.95l-.33-.12V175h15.92a2.91,2.91,0,0,0,2.61-1.63,17.79,17.79,0,0,1,23.07-8.55l2.2,1h-6a2.9,2.9,0,0,0-2.51,1.45l-7.17,12.43a2.9,2.9,0,0,0,0,2.9L187.49,195a2.9,2.9,0,0,0,2.51,1.45h6Z"/></g></g></svg>