<svg xmlns="http://www.w3.org/2000/svg" viewBox="0 0 241 241"><defs><style>.cls-1{fill:#fb6b31;}</style></defs><title>montaz</title><g id="Warstwa_2" data-name="Warstwa 2"><g id="Warstwa_1-2" data-name="Warstwa 1"><path class="cls-1" d="M0,118a120.5,120.5,0,0,0,203.86,89.54,120.5,120.5,0,0,0-166.77-174A119.71,119.71,0,0,0,0,118ZM122.93,5.82a114.71,114.71,0,0,1-2.39,229.39l-2.46,0A114.84,114.84,0,0,1,5.82,118.07C7.16,54.84,59.69,4.44,122.93,5.82Z"/><path class="cls-1" d="M205.82,169.76a2.9,2.9,0,0,0-2.5-1.53L190.55,168l2.54-119.87a7.25,7.25,0,0,0-.3-2.25,28.82,28.82,0,0,0-27.69-24.62h-.61a28.59,28.59,0,0,0-28.54,28c0,.1,0,.19,0,.28a13.84,13.84,0,0,0-7,11.5,2.89,2.89,0,0,0,2.83,3l22,.47a2.9,2.9,0,0,0,3-2.9,13.84,13.84,0,0,0-6.32-11.64,3.77,3.77,0,0,0,0-.42,14,14,0,0,1,28,.59L176,167.65l-140.36-3H35.6A2.9,2.9,0,0,0,33.1,169l12.67,21.73A37.17,37.17,0,0,0,76.9,209.08l83.35,1.76a37.09,37.09,0,0,0,31.88-17l13.58-21.17A2.9,2.9,0,0,0,205.82,169.76ZM135.36,58.25l.41-.73a8.07,8.07,0,0,1,4.87-3.77,13.46,13.46,0,0,0,2.46.27,13.27,13.27,0,0,0,2.35-.13,8.05,8.05,0,0,1,4.6,3.94l.38.75Zm29.55-28.3a19.91,19.91,0,0,0-20.13,17.78v.05a14.3,14.3,0,0,0-1.64-.14h-.31c-.34,0-.67,0-1,0v-.09A22.84,22.84,0,0,1,164.49,27H165a22.9,22.9,0,0,1,22.09,19.82,2.87,2.87,0,0,0,.15.61,1.48,1.48,0,0,1,.09.53l-2.53,119.74-.44,0a8,8,0,0,1-.8,0,9.14,9.14,0,0,1-1.26-.08l-.44-.06L184.3,50.18a19.84,19.84,0,0,0-19.4-20.23Zm22.34,160.78A31.35,31.35,0,0,1,161,205.06h-.64L77,203.29a31.35,31.35,0,0,1-26.25-15.45L40.71,170.58l.89,0L198,173.91Z"/><path class="cls-1" d="M118.85,94.47a2.89,2.89,0,0,0,2.83,3h0a2.9,2.9,0,0,0,3-2.83L125,78.45a2.9,2.9,0,0,0-2.83-3h-.06a2.9,2.9,0,0,0-2.9,2.84Z"/><path class="cls-1" d="M161,76.32H161a2.9,2.9,0,0,0-2.9,2.84l-.34,16.14a2.9,2.9,0,0,0,2.83,3,2.9,2.9,0,0,0,3-2.83l.34-16.14A2.9,2.9,0,0,0,161,76.32Z"/><path class="cls-1" d="M138.64,112.26a2.9,2.9,0,0,0,2.83,3h.06a2.9,2.9,0,0,0,2.9-2.84l.86-40.61a2.9,2.9,0,0,0-5.79-.12Z"/><path class="cls-1" d="M112.41,138.71a9.24,9.24,0,0,0,6.51,2.87,9.07,9.07,0,0,0,6.63-2.59,9.23,9.23,0,0,0,2.87-6.51c.09-4.08-4.67-11-6.72-13.72a2.87,2.87,0,0,0-2.27-1.17h-.06a2.87,2.87,0,0,0-2.25,1.08c-2.16,2.68-7.21,9.34-7.29,13.43A9.23,9.23,0,0,0,112.41,138.71Zm6.42-12.64.43-.64.41.65c.68,1.1,2.91,4.8,3,6.24a3.51,3.51,0,0,1-3.5,3.46H119a3.51,3.51,0,0,1-3.43-3.57C115.72,130.75,118.11,127.14,118.84,126.07Z"/><path class="cls-1" d="M141.11,142a9.08,9.08,0,0,0,6.63-2.59,9.24,9.24,0,0,0,2.86-6.51c.09-4.08-4.67-11-6.72-13.72a2.91,2.91,0,0,0-2.27-1.17,2.79,2.79,0,0,0-2.31,1.07c-2.16,2.68-7.21,9.34-7.29,13.43A9.31,9.31,0,0,0,141.11,142ZM141,126.54l.43-.64.41.65c.68,1.1,2.91,4.8,3,6.24a3.51,3.51,0,0,1-3.5,3.46h-.08a3.5,3.5,0,0,1-3.43-3.57C137.9,131.22,140.29,127.61,141,126.54Z"/><path class="cls-1" d="M156.83,139.65a9.3,9.3,0,0,0,16-6.23c.09-4.08-4.67-11-6.72-13.72a2.88,2.88,0,0,0-2.27-1.17h-.06a2.88,2.88,0,0,0-2.25,1.08c-2.16,2.67-7.21,9.34-7.29,13.43A9.23,9.23,0,0,0,156.83,139.65ZM163.25,127l.43-.64.41.66c.68,1.1,2.91,4.81,3,6.24a3.52,3.52,0,0,1-3.5,3.46h-.07a3.5,3.5,0,0,1-3.43-3.57C160.14,131.69,162.52,128.08,163.25,127Z"/><path class="cls-1" d="M123.46,160.11A9.24,9.24,0,0,0,130,163a9.08,9.08,0,0,0,6.63-2.59,9.24,9.24,0,0,0,2.86-6.51c.09-4.08-4.67-11-6.72-13.72a2.91,2.91,0,0,0-2.27-1.17h-.06a2.88,2.88,0,0,0-2.25,1.08c-2.16,2.68-7.21,9.34-7.29,13.43A9.23,9.23,0,0,0,123.46,160.11Zm6.42-12.64.43-.64.41.66c.68,1.1,2.91,4.8,3,6.24a3.51,3.51,0,0,1-3.5,3.46h-.08a3.5,3.5,0,0,1-3.43-3.57C126.77,152.16,129.15,148.54,129.88,147.47Z"/><path class="cls-1" d="M152.15,163.45a9.09,9.09,0,0,0,6.63-2.59,9.23,9.23,0,0,0,2.87-6.51c.09-4.08-4.67-11-6.72-13.72a2.92,2.92,0,0,0-2.27-1.17h-.06a2.92,2.92,0,0,0-2.25,1.08c-2.16,2.68-7.21,9.34-7.29,13.43A9.31,9.31,0,0,0,152.15,163.45Zm-.09-15.51.43-.64.41.66c.68,1.1,2.91,4.8,3,6.24a3.51,3.51,0,0,1-3.5,3.46h-.08a3.5,3.5,0,0,1-3.43-3.57C148.95,152.62,151.33,149,152.06,147.94Z"/></g></g></svg>