<svg xmlns="http://www.w3.org/2000/svg" viewBox="0 0 79.19 79.19"><defs><style>.cls-1{fill:#fb6b31;}.cls-2{fill:#999;}</style></defs><title>nr2</title><g id="Warstwa_2" data-name="Warstwa 2"><g id="Warstwa_1-2" data-name="Warstwa 1"><path class="cls-1" d="M75.77,65.68H42.35V57L53.43,41.34a112.79,112.79,0,0,0,6.27-9.61,29.27,29.27,0,0,0,2.52-6A21.87,21.87,0,0,0,63,19.77a7.85,7.85,0,0,0-1.6-5.37,5.31,5.31,0,0,0-4.16-1.79A8,8,0,0,0,53,13.8a23.83,23.83,0,0,0-4.77,4.31l-6.48-6.82a28.58,28.58,0,0,1,8.31-6.95,18.68,18.68,0,0,1,8.31-1.87q7.55,0,11.79,4.43t4.24,12.32A29,29,0,0,1,73.68,26a31.72,31.72,0,0,1-2.32,6.42,54.35,54.35,0,0,1-3.9,6.69Q65.11,42.57,55.35,55v.34H75.77Z"/><polygon class="cls-2" points="79.19 79.19 0 79.19 0 0 79.19 79.19"/></g></g></svg>