<svg xmlns="http://www.w3.org/2000/svg" viewBox="0 0 1920 576" preserveAspectRatio="xMinYMax"><defs><style>.cls-1{fill:#ccc;}.cls-2{fill:#6b4832;}.cls-3{fill:#666;}.cls-4{fill:#999;}.cls-5{fill:#efe4ac;}.cls-6{fill:#f6f0ca;}</style></defs><title>bg-glowna2m</title><g id="Warstwa_2" data-name="Warstwa 2"><g id="Warstwa_1-2" data-name="Warstwa 1"><polygon class="cls-1" points="0 192 96 192 192 288 192 384 0 192"/><polygon class="cls-1" points="0 288 0 384 96 384 0 288"/><polygon class="cls-2" points="1776 192 1824 192 1824 144 1776 144 1776 96 1728 96 1728 144 1728 192 1776 192"/><rect class="cls-2" x="1824" width="96" height="96" transform="translate(1920 -1824) rotate(90)"/><path class="cls-1" d="M1248,384H1200l-48,48V480Z"/><path class="cls-1" d="M1344,384h-48c-.29.37-144,144-144,144v48Z"/><path class="cls-1" d="M1200,576H1248l96-96V432Z"/><path class="cls-1" d="M1296,576h48l0,0V528C1343.78,528.16,1296.12,575.86,1296,576Z"/><rect class="cls-1" x="384" y="384" width="192" height="53.76"/><rect class="cls-1" x="384" y="480" width="192" height="96"/><path class="cls-2" d="M192,528V480L96,384H48Z"/><path class="cls-2" d="M192,432V384l0,0H144C144.16,384.22,191.86,431.88,192,432Z"/><polygon class="cls-2" points="192 576 0 576 0 384 192 576"/><polygon class="cls-3" points="1872 528 1872 480 1824 480 1824 432 1776 432 1776 384 1728 384 1728 432 1728 576 1872 576 1920 576 1920 528 1872 528"/><polygon class="cls-4" points="192 480 192 576 288 576 192 480"/><polygon class="cls-4" points="384 480 384 384 288 384 384 480"/><polygon class="cls-5" points="1392 384 1344 384 1344 432 1344 480 1392 480 1392 432 1440 432 1440 384 1392 384"/><rect class="cls-5" x="1440" y="480" width="96" height="96" transform="translate(2976 1056) rotate(180)"/><path class="cls-6" d="M960,528V384l-144,0v48h48v48h48v48Zm-48-96,.05.05H912Z"/><path class="cls-6" d="M864,528H816v0l0,0h0V480H768l0,0v96h96Z"/></g></g></svg>