<svg xmlns="http://www.w3.org/2000/svg" viewBox="0 0 1920 256" preserveAspectRatio="xMinYMax"><defs><style>.cls-1{fill:#ccc;}.cls-2{fill:#999;}.cls-3{fill:#6b4832;}.cls-4{fill:#f6f0ca;}.cls-5{fill:#efe4ac;}.cls-6{fill:#666;}.cls-7{fill:#fb6b31;}</style></defs><title>bg-glowna2</title><g id="Warstwa_2" data-name="Warstwa 2"><g id="Warstwa_1-2" data-name="Warstwa 1"><polygon class="cls-1" points="0 0 64 0 128 64 128 128 0 0"/><polygon class="cls-1" points="0 64 0 128 64 128 0 64"/><path class="cls-2" d="M1344,128h-32l-32,32v32Z"/><path class="cls-2" d="M1408,128h-32c-.19.25-96,96-96,96v32Z"/><path class="cls-2" d="M1312,256h32l64-64V160Z"/><path class="cls-2" d="M1376,256h32l0,0V224C1407.85,224.1,1376.08,255.91,1376,256Z"/><path class="cls-3" d="M128,224V192L64,128H32Z"/><path class="cls-3" d="M128,160V128l0,0H96C96.1,128.15,127.91,159.92,128,160Z"/><polygon class="cls-3" points="128 256 0 256 0 128 128 256"/><polygon class="cls-2" points="128 192 128 256 192 256 128 192"/><polygon class="cls-2" points="256 192 256 128 192 128 256 192"/><polygon class="cls-4" points="1440 128 1408 128 1408 160 1408 192 1440 192 1440 160 1472 160 1472 128 1440 128"/><rect class="cls-4" x="1472" y="192" width="64" height="64" transform="translate(3008 448) rotate(180)"/><path class="cls-4" d="M512,224V128l-96,0v32h32v32h32v32Zm-32-64,0,0h0Z"/><path class="cls-4" d="M448,224H416v0l0,0h0V192H384l0,0v64h64Z"/><path class="cls-5" d="M1792,32v96l96,0V96h-32V64h-32V32Zm32,64,0,0h0Z"/><path class="cls-5" d="M1856,32h32v0l0,0h0V64h32l0,0V0h-64Z"/><path class="cls-6" d="M1152,224V192l-64-64h-32Z"/><path class="cls-6" d="M1152,160V128l0,0h-32C1120.1,128.15,1151.91,159.92,1152,160Z"/><polygon class="cls-6" points="1152 256 1024 256 1024 128 1152 256"/><path class="cls-2" d="M1664,160v32l64,64h32Z"/><path class="cls-2" d="M1664,224v32l0,0h32C1695.9,255.85,1664.09,224.08,1664,224Z"/><polygon class="cls-2" points="1664 128 1792 128 1792 256 1664 128"/><path class="cls-1" d="M1920,160V128l0,0h-32C1888.1,128.15,1919.91,159.92,1920,160Z"/><polygon class="cls-1" points="1920 256 1792 256 1792 128 1920 256"/><path class="cls-1" d="M335.48,240.5,320,256h64V192l-47.64,47.64C336.09,240,335.75,240.2,335.48,240.5Z"/><path class="cls-1" d="M256,128h0V256h32V224l0,0h32V192l0,0h32V160l0,0h32V128H256Z"/><rect class="cls-7" x="608" y="224" width="32" height="32" transform="translate(864 -384) rotate(90)"/><rect class="cls-7" x="512" y="128" width="64" height="64" transform="translate(704 -384) rotate(90)"/><polygon class="cls-1" points="928 224 960 224 960 256 928 256 896 256 896 224 896 192 928 192 928 224"/><polygon class="cls-1" points="1024 160 1024 192 992 192 992 160 960 160 960 128 992 128 1024 128 1024 160"/></g></g></svg>