<svg xmlns="http://www.w3.org/2000/svg" viewBox="0 0 1920 576" preserveAspectRatio="xMinYMin"><defs><style>.cls-1{fill:#efe4ac;}.cls-2{fill:#666;}.cls-3{fill:#6b4832;}.cls-4{fill:#ccc;}.cls-5{fill:#999;}.cls-6{fill:#fb6b31;}</style></defs><title>Zasób 66</title><g id="Warstwa_2" data-name="Warstwa 2"><g id="Warstwa_1-2" data-name="Warstwa 1"><path class="cls-1" d="M119.22,168.76,96,192h96V96l-71.46,71.46C120.13,167.94,119.63,168.3,119.22,168.76Z"/><path class="cls-1" d="M0,0H0V192H48V144l0,0H96V96l0,0h48V48l0,0h48V0Z"/><polygon class="cls-2" points="1872 192 1824 192 1824 240 1872 240 1872 288 1920 288 1920 240 1920 192 1872 192"/><polygon class="cls-2" points="1872 336 1872 288 1824 288 1824 240 1776 240 1776 192 1728 192 1728 240 1728 384 1872 384 1920 384 1920 336 1872 336"/><rect class="cls-3" x="1536" width="96" height="53.76"/><rect class="cls-3" x="1680" y="96" width="48" height="96"/><rect class="cls-3" x="1584" y="96" width="48" height="96"/><polygon class="cls-4" points="672 0 624 0 624 48 576 48 576 96 672 96 672 0"/><rect class="cls-4" x="720" width="48" height="96"/><rect class="cls-4" x="672" y="144" width="48" height="48"/><polygon class="cls-3" points="96 384 48 384 48 432 0 432 0 480 96 480 96 384"/><polygon class="cls-3" points="96 576 144 576 144 528 192 528 192 480 96 480 96 576"/><path class="cls-5" d="M288,192H240l-48,48V288Z"/><path class="cls-5" d="M384,192H336c-.29.37-144,144-144,144v48Z"/><path class="cls-5" d="M240,384H288l96-96V240Z"/><path class="cls-5" d="M336,384h48l0,0V336C383.78,336.16,336.12,383.86,336,384Z"/><path class="cls-1" d="M1344,48V96l96,96H1488Z"/><path class="cls-1" d="M1344,144v48l0,0h48C1391.84,191.78,1344.14,144.12,1344,144Z"/><polygon class="cls-1" points="1344 0 1536 0 1536 192 1344 0"/><path class="cls-4" d="M1152,144V0L1008,0V48h48V96h48v48Zm-48-96,.05.05H1104Z"/><path class="cls-4" d="M1056,144h-48v0l0,0h0V96H960l0,0v96h96Z"/><path class="cls-6" d="M576,96.06V0H480C503.85,23.85,568.25,88.31,576,96.06Z"/><path class="cls-6" d="M384,192H576v0C574.73,190.75,387.32,3.31,384,0h0V192Z"/></g></g></svg>