<svg xmlns="http://www.w3.org/2000/svg" viewBox="0 0 241 241"><defs><style>.cls-1{fill:#fb6b31;}</style></defs><title>modernizacja</title><g id="Warstwa_2" data-name="Warstwa 2"><g id="Warstwa_1-2" data-name="Warstwa 1"><path class="cls-1" d="M205.71,35.29A120.5,120.5,0,1,0,35.29,205.71,120.5,120.5,0,1,0,205.71,35.29ZM120.5,235.21A114.71,114.71,0,1,1,235.21,120.5,114.84,114.84,0,0,1,120.5,235.21Z"/><path class="cls-1" d="M77.92,125.47a2.9,2.9,0,0,0-2.9,2.9v32.28a2.9,2.9,0,1,0,5.79,0V128.37A2.9,2.9,0,0,0,77.92,125.47Z"/><path class="cls-1" d="M99,135.48a2.9,2.9,0,1,0-5.79,0v16.14a2.9,2.9,0,1,0,5.79,0Z"/><path class="cls-1" d="M135,132.58a2.9,2.9,0,0,0-2.9,2.9v16.14a2.9,2.9,0,1,0,5.79,0V135.48A2.9,2.9,0,0,0,135,132.58Z"/><path class="cls-1" d="M116.31,125.47a2.9,2.9,0,0,0-2.9,2.9V169a2.9,2.9,0,0,0,5.79,0V128.37A2.9,2.9,0,0,0,116.31,125.47Z"/><path class="cls-1" d="M153.08,125.47a2.9,2.9,0,0,0-2.9,2.9v32.28a2.9,2.9,0,1,0,5.79,0V128.37A2.9,2.9,0,0,0,153.08,125.47Z"/><path class="cls-1" d="M197.37,32.8H137a12.42,12.42,0,0,0-12.4,12.4v5.51a26.36,26.36,0,0,0-16.05.09V36.18c0-.07,0-.16,0-.23a19.49,19.49,0,0,1,5.07-13.4c2.49-2.64,7.07-5.8,14.79-5.8H168.6a2.9,2.9,0,0,0,0-5.79H128.41c-9.79,0-15.74,4.14-19,7.62a25.35,25.35,0,0,0-6.64,17.65V52.65c0,.12,0,.23,0,.34v.25c-9.39,5-17.26,14.22-22.86,22.36A128.47,128.47,0,0,0,67.87,97.5l-.22.54-.4,1-.34.88v0c-.44,1.17-.8,2.24-1.08,3.21l0,.06c-.1.34-.18.66-.26,1l-.1.42-.09.43c-.05.26-.09.51-.13.73,0,.06,0,.12,0,.17a6.6,6.6,0,0,0-.05.74,4.74,4.74,0,0,0,.07.79s0,.05,0,.08l0,.09,0,.09s0,.05,0,.08a4.73,4.73,0,0,0-.07.79,5.74,5.74,0,0,0,.06.86c.63,4.21,6,7.42,16.45,9.78,9.4,2.13,21.85,3.31,35.06,3.31s25.67-1.17,35.06-3.31c11.11-2.52,16.51-6,16.51-10.64a4.7,4.7,0,0,0-.07-.79s0-.06,0-.09l0-.09,0-.09s0-.06,0-.09a4.71,4.71,0,0,0,.07-.79,6.68,6.68,0,0,0-.06-.78v-.09c0-.28-.09-.6-.16-.93l0-.08c-1.24-5.82-7.15-18.46-14.52-29.18-5.66-8.23-13.63-17.54-23.16-22.51V45.2A6.62,6.62,0,0,1,137,38.59h60.36a2.9,2.9,0,0,0,0-5.79Zm-71.6,24.53.13.07a34.43,34.43,0,0,1,5.55,3.14l.12.09c.53.36,1,.74,1.56,1.14l.21.16c.5.39,1,.79,1.49,1.2l.4.33q.74.63,1.47,1.29l.19.17c11.29,10.42,20,26.72,23.69,35.69l-.53-.2a53.57,53.57,0,0,0-7.16-2.21l-.06,0c-.81-.19-1.65-.39-2.54-.57a171.14,171.14,0,0,0-33.56-3,171.13,171.13,0,0,0-33.56,3c-.9.19-1.74.38-2.54.57h-.06a53.56,53.56,0,0,0-7.18,2.21l-.52.2.45-1.08A119.41,119.41,0,0,1,84.88,78.63c3.46-5,8.93-11.92,15.54-16.93.37-.28.75-.56,1.13-.83l.24-.17a35.72,35.72,0,0,1,5.53-3.17,2.82,2.82,0,0,0,.27-.15,21.11,21.11,0,0,1,18.19-.05Zm-9,59.41a167,167,0,0,1-32-2.78L83,113.6l-.68-.16-.78-.19-.91-.23-.23-.06A42,42,0,0,1,74.66,111l-.1,0-.57-.26a10.53,10.53,0,0,1-2.58-1.6l0,0-.22-.23-.17-.2v0A5.09,5.09,0,0,1,73,107L73,107l.44-.23.31-.16.24-.12a38.73,38.73,0,0,1,6.41-2.23l.32-.08,1-.24.68-.16.75-.18,1.6-.34a166.67,166.67,0,0,1,32-2.78,166.67,166.67,0,0,1,32,2.78l1.81.39.69.16,1,.23.71.19.81.22.61.18.77.23.47.15.8.26.29.1.85.31.11,0a16.32,16.32,0,0,1,4.08,2.09l.12.09.09.07a2.49,2.49,0,0,1,.59.67v0l-.17.2a8.51,8.51,0,0,1-2.84,1.87l-.49.22-.18.08A42,42,0,0,1,153,113l-.22.06-.93.23-.75.18-.71.16-1.68.36A167,167,0,0,1,116.73,116.74Z"/><path class="cls-1" d="M126.77,20.36c-4.72,0-8.31,1.47-10.68,4.36-3.88,4.75-2.69,11.27-2.55,12a2.9,2.9,0,1,0,5.68-1.15s-.82-4.52,1.35-7.18c1.21-1.48,3.3-2.23,6.19-2.23a2.9,2.9,0,1,0,0-5.79Z"/><path class="cls-1" d="M85.29,103.21c-4.56,0-7.87,2.26-7.87,5.38S80.73,114,85.29,114s7.87-2.26,7.87-5.38S89.85,103.21,85.29,103.21Z"/><path class="cls-1" d="M116.17,105.69c-4.56,0-7.87,2.26-7.87,5.38s3.31,5.38,7.87,5.38,7.87-2.26,7.87-5.38S120.73,105.69,116.17,105.69Z"/><path class="cls-1" d="M148.11,103.21c-4.56,0-7.87,2.26-7.87,5.38s3.31,5.38,7.87,5.38,7.87-2.26,7.87-5.38S152.67,103.21,148.11,103.21Z"/><path class="cls-1" d="M151,199.26V184.44a7.61,7.61,0,0,0-5.64,7.37C145.37,194.13,146.38,197.24,151,199.26Z"/><path class="cls-1" d="M157.7,193.47l-1.24-.74,1.43-.19a2.86,2.86,0,0,0,.68-.17,2.89,2.89,0,0,0,1.69-1.77l.65-1.92a2.9,2.9,0,0,0-1.32-3.45,10.12,10.12,0,0,0-3.82-1.17v24a7.93,7.93,0,0,0,6-7.71A7.68,7.68,0,0,0,157.7,193.47Z"/><path class="cls-1" d="M151,200.48a5.52,5.52,0,0,1-1-.46,2.91,2.91,0,0,0-1.52-.43,2.87,2.87,0,0,0-1,.19,2.91,2.91,0,0,0-1.74,1.87l-.59,2a2.88,2.88,0,0,0,1.17,3.25,11.25,11.25,0,0,0,4.73,1.55Z"/><path class="cls-1" d="M154.2,209.77V182.71a.8.8,0,0,0-1.61,0v27.06a.8.8,0,0,0,1.61,0Z"/><path class="cls-1" d="M112.53,203.13V188.31a7.61,7.61,0,0,0-5.64,7.37C106.89,198,107.9,201.12,112.53,203.13Z"/><path class="cls-1" d="M119.22,197.34,118,196.6l1.43-.19a2.86,2.86,0,0,0,.68-.17,2.89,2.89,0,0,0,1.69-1.77l.65-1.92a2.9,2.9,0,0,0-1.32-3.45,10.12,10.12,0,0,0-3.82-1.17v24a7.93,7.93,0,0,0,6-7.71A7.68,7.68,0,0,0,119.22,197.34Z"/><path class="cls-1" d="M112.53,204.36a5.52,5.52,0,0,1-1-.46,2.91,2.91,0,0,0-1.52-.43,2.87,2.87,0,0,0-1,.19,2.91,2.91,0,0,0-1.74,1.87l-.59,2a2.88,2.88,0,0,0,1.17,3.25,11.25,11.25,0,0,0,4.73,1.55Z"/><path class="cls-1" d="M115.72,213.65V186.59a.8.8,0,0,0-1.61,0v27.06a.8.8,0,0,0,1.61,0Z"/><path class="cls-1" d="M75.66,199.26V184.44A7.61,7.61,0,0,0,70,191.8C70,194.13,71,197.24,75.66,199.26Z"/><path class="cls-1" d="M82.35,193.47l-1.24-.74,1.43-.19a2.86,2.86,0,0,0,.68-.17,2.89,2.89,0,0,0,1.69-1.77l.65-1.92a2.9,2.9,0,0,0-1.32-3.45,10.12,10.12,0,0,0-3.82-1.17v24a7.93,7.93,0,0,0,6-7.71A7.68,7.68,0,0,0,82.35,193.47Z"/><path class="cls-1" d="M75.66,200.48a5.52,5.52,0,0,1-1-.46,2.91,2.91,0,0,0-1.52-.43,2.87,2.87,0,0,0-1,.19,2.91,2.91,0,0,0-1.74,1.87l-.59,2a2.88,2.88,0,0,0,1.17,3.25,11.25,11.25,0,0,0,4.73,1.55Z"/><path class="cls-1" d="M78.85,209.77V182.71a.8.8,0,0,0-1.61,0v27.06a.8.8,0,0,0,1.61,0Z"/><path class="cls-1" d="M132.67,182.87V168.05a7.61,7.61,0,0,0-5.64,7.37C127,177.75,128,180.86,132.67,182.87Z"/><path class="cls-1" d="M139.36,177.09l-1.24-.74,1.43-.19a2.86,2.86,0,0,0,.68-.17,2.89,2.89,0,0,0,1.69-1.77l.65-1.92a2.9,2.9,0,0,0-1.32-3.45,10.12,10.12,0,0,0-3.82-1.17v24a7.93,7.93,0,0,0,6-7.71A7.68,7.68,0,0,0,139.36,177.09Z"/><path class="cls-1" d="M132.67,184.1a5.52,5.52,0,0,1-1-.46,2.91,2.91,0,0,0-1.52-.43,2.87,2.87,0,0,0-1,.19,2.91,2.91,0,0,0-1.74,1.87l-.59,2a2.88,2.88,0,0,0,1.17,3.25,11.25,11.25,0,0,0,4.73,1.55Z"/><path class="cls-1" d="M135.85,193.39V166.33a.8.8,0,0,0-1.61,0v27.06a.8.8,0,0,0,1.61,0Z"/><path class="cls-1" d="M94.43,182.87V168.05a7.61,7.61,0,0,0-5.64,7.37C88.79,177.75,89.8,180.86,94.43,182.87Z"/><path class="cls-1" d="M101.12,177.09l-1.24-.74,1.43-.19A2.86,2.86,0,0,0,102,176a2.89,2.89,0,0,0,1.69-1.77l.65-1.92a2.9,2.9,0,0,0-1.32-3.45,10.12,10.12,0,0,0-3.82-1.17v24a7.93,7.93,0,0,0,6-7.71A7.68,7.68,0,0,0,101.12,177.09Z"/><path class="cls-1" d="M94.43,184.1a5.52,5.52,0,0,1-1-.46,2.91,2.91,0,0,0-1.52-.43,2.87,2.87,0,0,0-1,.19,2.91,2.91,0,0,0-1.74,1.87l-.59,2a2.88,2.88,0,0,0,1.17,3.25A11.25,11.25,0,0,0,94.43,192Z"/><path class="cls-1" d="M97.62,193.39V166.33a.8.8,0,0,0-1.61,0v27.06a.8.8,0,0,0,1.61,0Z"/></g></g></svg>