<svg xmlns="http://www.w3.org/2000/svg" viewBox="0 0 241 241"><defs><style>.cls-1{fill:#fb6b31;}</style></defs><title>podlaczenie</title><g id="Warstwa_2" data-name="Warstwa 2"><g id="Warstwa_1-2" data-name="Warstwa 1"><path class="cls-1" d="M205.71,35.29A120.5,120.5,0,1,0,35.29,205.71,120.5,120.5,0,1,0,205.71,35.29ZM120.5,235.21A114.71,114.71,0,1,1,235.21,120.5,114.84,114.84,0,0,1,120.5,235.21Z"/><path class="cls-1" d="M178.31,32.42H62.69a17,17,0,0,0-17,16.93v142.3a17,17,0,0,0,17,16.93H178.31a17,17,0,0,0,17-16.93V49.35A17,17,0,0,0,178.31,32.42ZM191,192.63a12.68,12.68,0,0,1-12.65,11.66H62.69A12.68,12.68,0,0,1,50,192.63ZM191,84.9V188.34H50V84.9Zm0-35.55V80.61H50V49.35A12.67,12.67,0,0,1,62.69,36.72H178.31A12.67,12.67,0,0,1,191,49.35Z"/><path class="cls-1" d="M178.31,208.7H62.69a17.1,17.1,0,0,1-17.1-17.05V49.35A17.1,17.1,0,0,1,62.69,32.3H178.31a17.1,17.1,0,0,1,17.1,17.05v142.3A17.1,17.1,0,0,1,178.31,208.7ZM62.69,32.55a16.85,16.85,0,0,0-16.85,16.8v142.3a16.85,16.85,0,0,0,16.85,16.8H178.31a16.85,16.85,0,0,0,16.85-16.8V49.35a16.85,16.85,0,0,0-16.85-16.8ZM178.31,204.41H62.69a12.84,12.84,0,0,1-12.77-11.77v-.13H191.09v.13A12.84,12.84,0,0,1,178.31,204.41ZM50.18,192.75a12.59,12.59,0,0,0,12.51,11.41H178.31a12.59,12.59,0,0,0,12.51-11.41Zm140.94-4.29H49.88V84.78H191.12Zm-141-.25H190.87V85H50.13Zm141-107.48H49.88V49.35A12.8,12.8,0,0,1,62.69,36.59H178.31a12.8,12.8,0,0,1,12.81,12.76Zm-141-.25H190.87V49.35a12.55,12.55,0,0,0-12.56-12.51H62.69A12.55,12.55,0,0,0,50.13,49.35Z"/><path class="cls-1" d="M122.07,99.67a35.94,35.94,0,1,0,36.05,35.94A36,36,0,0,0,122.07,99.67Zm31.76,35.94A31.76,31.76,0,1,1,122.07,104,31.74,31.74,0,0,1,153.83,135.62Z"/><path class="cls-1" d="M122.07,171.68a36.07,36.07,0,1,1,36.18-36.07A36.16,36.16,0,0,1,122.07,171.68Zm0-71.88A35.82,35.82,0,1,0,158,135.62,35.91,35.91,0,0,0,122.07,99.8Zm0,67.59A31.77,31.77,0,1,1,154,135.62,31.87,31.87,0,0,1,122.07,167.39Zm0-63.3a31.52,31.52,0,1,0,31.63,31.52A31.61,31.61,0,0,0,122.07,104.09Z"/><path class="cls-1" d="M122.07,105.64a30,30,0,1,0,30.07,30A30.05,30.05,0,0,0,122.07,105.64Zm25.77,30a25.77,25.77,0,1,1-25.77-25.68A25.75,25.75,0,0,1,147.84,135.62Z"/><path class="cls-1" d="M122.07,165.71a30.1,30.1,0,1,1,30.19-30.1A30.18,30.18,0,0,1,122.07,165.71Zm0-59.95A29.85,29.85,0,1,0,152,135.62,29.93,29.93,0,0,0,122.07,105.77Zm0,55.65a25.8,25.8,0,1,1,25.9-25.8A25.88,25.88,0,0,1,122.07,161.42Zm0-51.36a25.55,25.55,0,1,0,25.65,25.55A25.63,25.63,0,0,0,122.07,110.06Z"/><path class="cls-1" d="M122.07,89.71a46,46,0,0,0-43.4,30.56h-1A4.75,4.75,0,0,0,72.88,125v21.21A4.75,4.75,0,0,0,77.63,151h1a46,46,0,1,0,43.4-61.25ZM85.22,146.22V125A4.74,4.74,0,0,0,83,121a41.61,41.61,0,1,1,0,29.25A4.74,4.74,0,0,0,85.22,146.22ZM80.93,125v21.21a.44.44,0,0,1-.28.41.45.45,0,0,1-.17,0H77.63a.45.45,0,0,1-.45-.44V125a.45.45,0,0,1,.45-.44h2.85a.46.46,0,0,1,.45.44Z"/><path class="cls-1" d="M122.07,181.65a46.27,46.27,0,0,1-43.49-30.56h-.95a4.87,4.87,0,0,1-4.87-4.86V125a4.87,4.87,0,0,1,4.87-4.86h.95a46.15,46.15,0,1,1,43.49,61.5ZM77.63,120.4A4.62,4.62,0,0,0,73,125v21.21a4.62,4.62,0,0,0,4.62,4.61h1.12l0,.08a45.78,45.78,0,1,0,0-30.6l0,.08Zm44.44,57a42.1,42.1,0,0,1-39.21-27.07l0-.1.09-.05a4.64,4.64,0,0,0,2.19-3.91V125a4.64,4.64,0,0,0-2.19-3.91l-.09-.05,0-.1a41.85,41.85,0,1,1,39.21,56.41ZM83.13,150.29a41.49,41.49,0,1,0,0-29.35A4.89,4.89,0,0,1,85.34,125v21.21A4.89,4.89,0,0,1,83.13,150.29Zm-2.65-3.5H77.63a.57.57,0,0,1-.58-.57V125a.57.57,0,0,1,.58-.57h2.85a.56.56,0,0,1,.22,0,.57.57,0,0,1,.36.52v21.21a.58.58,0,0,1-.57.57Zm-2.85-22.1a.32.32,0,0,0-.33.32v21.21a.32.32,0,0,0,.33.32h2.85l.12,0a.32.32,0,0,0,.2-.29V125a.32.32,0,0,0-.2-.29l-.12,0Z"/><path class="cls-1" d="M134.31,146.07l-21.09-21a2.15,2.15,0,0,0-3,0h0a2.15,2.15,0,0,0,0,3l21.09,21a2.15,2.15,0,0,0,3-3Z"/><path class="cls-1" d="M132.79,149.87a2.26,2.26,0,0,1-1.6-.66l-21.09-21a2.28,2.28,0,0,1,0-3.17h0l0,0a2.26,2.26,0,0,1,1.6-.67h0a2.26,2.26,0,0,1,1.6.66l21.09,21a2.27,2.27,0,0,1-1.6,3.88Zm-22.5-24.75,0,0a2,2,0,0,0,0,2.86l21.09,21a2,2,0,0,0,2.85-2.86l-21.09-21a2,2,0,0,0-1.43-.59h0A2,2,0,0,0,110.29,125.12Z"/><path class="cls-1" d="M133.5,137.93l-21.09-21a2.13,2.13,0,0,0-1.52-.63h0a2.15,2.15,0,0,0-1.51,3.67l21.09,21h0a2.15,2.15,0,0,0,3-3Z"/><path class="cls-1" d="M132,141.72a2.26,2.26,0,0,1-1.6-.66l-21.09-21a2.27,2.27,0,0,1,0-3.21,2.27,2.27,0,0,1,3.21,0l21.09,21a2.27,2.27,0,0,1-1.6,3.88ZM110.89,116.4a2,2,0,0,0-1.43,3.45l21.09,21a2,2,0,1,0,2.85-2.86l-21.09-21A2,2,0,0,0,110.89,116.4Z"/><path class="cls-1" d="M177.05,40.35H66.39a5.49,5.49,0,0,0,0,11H177.05a5.49,5.49,0,0,0,0-11Zm1.17,5.52A1.17,1.17,0,0,1,177.05,47H66.39a1.17,1.17,0,0,1-1.17-1.16v-.07a1.17,1.17,0,0,1,1.17-1.16H177.05A1.18,1.18,0,0,1,178.23,45.88Z"/><path class="cls-1" d="M177.05,51.45H66.39a5.61,5.61,0,0,1,0-11.22H177.05a5.61,5.61,0,0,1,0,11.22Zm-110.66-11a5.36,5.36,0,0,0,0,10.72H177.05a5.36,5.36,0,0,0,0-10.72Zm110.66,6.68H66.39a1.29,1.29,0,0,1-1.3-1.29v-.07a1.29,1.29,0,0,1,1.3-1.29H177.05a1.31,1.31,0,0,1,1.3,1.35A1.29,1.29,0,0,1,177.05,47.16ZM66.39,44.77a1,1,0,0,0-1,1v.07a1,1,0,0,0,1,1H177.05a1,1,0,0,0,1-1,1.06,1.06,0,0,0-1-1.1Z"/><path class="cls-1" d="M75.87,55.05h-6a5.33,5.33,0,0,0-5.33,5.32v6a5.33,5.33,0,0,0,5.33,5.32h6a5.33,5.33,0,0,0,5.33-5.32v-6A5.33,5.33,0,0,0,75.87,55.05Zm1,5.32v6a1,1,0,0,1-1,1h-6a1,1,0,0,1-1-1v-6a1,1,0,0,1,1-1h6A1,1,0,0,1,76.9,60.37Z"/><path class="cls-1" d="M75.87,71.83h-6a5.46,5.46,0,0,1-5.46-5.45v-6a5.46,5.46,0,0,1,5.46-5.44h6a5.46,5.46,0,0,1,5.46,5.44v6A5.46,5.46,0,0,1,75.87,71.83Zm-6-16.65a5.21,5.21,0,0,0-5.21,5.19v6a5.21,5.21,0,0,0,5.21,5.2h6a5.21,5.21,0,0,0,5.21-5.2v-6a5.21,5.21,0,0,0-5.21-5.19Zm6,12.36h-6a1.16,1.16,0,0,1-1.16-1.15v-6a1.16,1.16,0,0,1,1.16-1.15h6A1.16,1.16,0,0,1,77,60.37v6A1.16,1.16,0,0,1,75.87,67.54Zm-6-8.07a.91.91,0,0,0-.91.9v6a.91.91,0,0,0,.91.9h6a.91.91,0,0,0,.91-.9v-6a.91.91,0,0,0-.91-.9Z"/><path class="cls-1" d="M94.58,55.05h-6a5.33,5.33,0,0,0-5.33,5.32v6a5.33,5.33,0,0,0,5.33,5.32h6a5.33,5.33,0,0,0,5.33-5.32v-6A5.33,5.33,0,0,0,94.58,55.05Zm1,5.32v6a1,1,0,0,1-1,1h-6a1,1,0,0,1-1-1v-6a1,1,0,0,1,1-1h6A1,1,0,0,1,95.61,60.37Z"/><path class="cls-1" d="M94.58,71.83h-6a5.46,5.46,0,0,1-5.46-5.45v-6a5.46,5.46,0,0,1,5.46-5.44h6A5.46,5.46,0,0,1,100,60.37v6A5.46,5.46,0,0,1,94.58,71.83Zm-6-16.65a5.21,5.21,0,0,0-5.21,5.19v6a5.21,5.21,0,0,0,5.21,5.2h6a5.21,5.21,0,0,0,5.21-5.2v-6a5.21,5.21,0,0,0-5.21-5.19Zm6,12.36h-6a1.16,1.16,0,0,1-1.16-1.15v-6a1.16,1.16,0,0,1,1.16-1.15h6a1.16,1.16,0,0,1,1.16,1.15v6A1.16,1.16,0,0,1,94.58,67.54Zm-6-8.07a.91.91,0,0,0-.91.9v6a.91.91,0,0,0,.91.9h6a.91.91,0,0,0,.91-.9v-6a.91.91,0,0,0-.91-.9Z"/><path class="cls-1" d="M113.29,55.05h-6a5.33,5.33,0,0,0-5.33,5.32v6a5.33,5.33,0,0,0,5.33,5.32h6a5.33,5.33,0,0,0,5.33-5.32v-6A5.33,5.33,0,0,0,113.29,55.05Zm0,12.36h-6a1,1,0,0,1-1-1v-6a1,1,0,0,1,1-1h6a1,1,0,0,1,1,1v6A1,1,0,0,1,113.29,67.41Z"/><path class="cls-1" d="M113.29,71.83h-6a5.46,5.46,0,0,1-5.46-5.45v-6a5.46,5.46,0,0,1,5.46-5.44h6a5.46,5.46,0,0,1,5.46,5.44v6A5.46,5.46,0,0,1,113.29,71.83Zm-6-16.65A5.21,5.21,0,0,0,102,60.37v6a5.21,5.21,0,0,0,5.21,5.2h6a5.21,5.21,0,0,0,5.21-5.2v-6a5.21,5.21,0,0,0-5.21-5.19Zm6,12.36h-6a1.16,1.16,0,0,1-1.16-1.15v-6a1.16,1.16,0,0,1,1.16-1.15h6a1.16,1.16,0,0,1,1.16,1.15v6A1.16,1.16,0,0,1,113.29,67.54Zm-6-8.07a.91.91,0,0,0-.91.9v6a.91.91,0,0,0,.91.9h6a.91.91,0,0,0,.91-.9v-6a.91.91,0,0,0-.91-.9Z"/><path class="cls-1" d="M132,55.05h-6a5.33,5.33,0,0,0-5.33,5.32v6A5.33,5.33,0,0,0,126,71.71h6a5.33,5.33,0,0,0,5.33-5.32v-6A5.33,5.33,0,0,0,132,55.05Zm1,5.32v6a1,1,0,0,1-1,1h-6a1,1,0,0,1-1-1v-6a1,1,0,0,1,1-1h6A1,1,0,0,1,133,60.37Z"/><path class="cls-1" d="M132,71.83h-6a5.46,5.46,0,0,1-5.46-5.45v-6A5.46,5.46,0,0,1,126,54.93h6a5.46,5.46,0,0,1,5.46,5.44v6A5.46,5.46,0,0,1,132,71.83Zm-6-16.65a5.21,5.21,0,0,0-5.21,5.19v6a5.21,5.21,0,0,0,5.21,5.2h6a5.21,5.21,0,0,0,5.21-5.2v-6A5.21,5.21,0,0,0,132,55.18Zm6,12.36h-6a1.16,1.16,0,0,1-1.16-1.15v-6A1.16,1.16,0,0,1,126,59.22h6a1.16,1.16,0,0,1,1.16,1.15v6A1.16,1.16,0,0,1,132,67.54Zm-6-8.07a.91.91,0,0,0-.91.9v6a.91.91,0,0,0,.91.9h6a.91.91,0,0,0,.91-.9v-6a.91.91,0,0,0-.91-.9Z"/><path class="cls-1" d="M170.15,56.14a12.59,12.59,0,1,0,12.62,12.59A12.62,12.62,0,0,0,170.15,56.14Zm5.53,18.09a7.78,7.78,0,1,1,2.29-5.5A7.79,7.79,0,0,1,175.68,74.23Z"/></g></g></svg>