<?xml version="1.0" encoding="utf-8"?>
<!-- Generator: Adobe Illustrator 23.0.0, SVG Export Plug-In . SVG Version: 6.00 Build 0)  -->
<svg version="1.1" id="Warstwa_1" xmlns="http://www.w3.org/2000/svg" xmlns:xlink="http://www.w3.org/1999/xlink" x="0px" y="0px"
	 viewBox="0 0 1536 128" style="enable-background:new 0 0 1536 128;" xml:space="preserve">
<style type="text/css">
	.st0{fill:#999999;}
	.st1{fill:#CCCCCC;}
	.st2{fill:#FB6B31;}
	.st3{fill:#F6F0CA;}
	.st4{fill:#666666;}
	.st5{fill:#6B4832;}
</style>
<title>bg-kontakt1</title>
<g>
	<polygon class="st0" points="448,0 384,0 384,64 	"/>
	<polygon class="st0" points="448,128 512,128 512,64 	"/>
</g>
<g>
	<polygon class="st1" points="704,128 768,128 768,64 	"/>
	<polygon class="st1" points="704,0 640,0 640,64 	"/>
	<rect x="672" y="32" class="st1" width="64" height="64"/>
</g>
<g>
	<polygon class="st0" points="1088,0 1152,0 1152,64 	"/>
	<polygon class="st0" points="1024,64 1024,0 1088,0 	"/>
	<polygon class="st0" points="1088,128 1024,128 1024,64 	"/>
	<polygon class="st0" points="1152,64 1152,128 1088,128 	"/>
	<rect x="1056" y="32" class="st0" width="64" height="64"/>
</g>
<polygon class="st2" points="384,128 384,0 256,0 256,128 320,64 "/>
<polygon class="st3" points="256,128 128,128 128,0 "/>
<g>
	<rect x="992" y="96" class="st3" width="32" height="32"/>
	<rect x="896" class="st3" width="32" height="32"/>
	<polygon class="st3" points="928,64 896,64 896,96 896,128 928,128 960,128 960,96 960,64 	"/>
	<rect x="960" class="st3" width="64" height="64"/>
</g>
<path class="st1" d="M0,0v128h128V0H0z M32,96V32h64v64H32z"/>
<g>
	<polygon class="st0" points="864,0 832,0 832,32 864,32 864,64 896,64 896,32 896,0 	"/>
	<polygon class="st0" points="864,96 864,64 832,64 832,32 800,32 800,0 768,0 768,32 768,128 864,128 896,128 896,96 	"/>
</g>
<g>
	<polygon class="st1" points="1440,96 1440,64 1408,64 1408,96 1408,128 1440,128 1472,128 1472,96 	"/>
	<polygon class="st1" points="1504,0 1472,0 1472,32 1504,32 1504,64 1536,64 1536,32 1536,0 	"/>
</g>
<g>
	<polygon class="st4" points="1312,128 1344,128 1344,96 1312,96 1312,64 1280,64 1280,96 1280,128 	"/>
	<rect x="1344" class="st4" width="64" height="64"/>
</g>
<polygon class="st5" points="1184,32 1184,64 1216,64 1216,96 1248,96 1248,128 1280,128 1280,96 1280,0 1184,0 1152,0 1152,32 "/>
<g>
	<rect x="512" y="64" class="st5" width="64" height="64"/>
	<rect x="576" class="st5" width="64" height="64"/>
</g>
</svg>
