<svg xmlns="http://www.w3.org/2000/svg" viewBox="0 0 1920 384" preserveAspectRatio="xMinYMin"><defs><style>.cls-1{fill:#fb6b31;}.cls-2{fill:#f6f0ca;}.cls-3{fill:#ccc;}.cls-4{fill:#999;}.cls-5{fill:#666;}.cls-6{fill:#6b4832;}</style></defs><title>bg-kontakt1m</title><g id="Warstwa_2" data-name="Warstwa 2"><g id="Warstwa_1-2" data-name="Warstwa 1"><polygon class="cls-1" points="576 192 576 0 384 0 384 192 480 96 576 192"/><polygon class="cls-2" points="384 192 192 192 192 0 384 192"/><rect class="cls-2" x="1488" y="144" width="48" height="48"/><rect class="cls-2" x="1344" width="48" height="48"/><polygon class="cls-2" points="1392 96 1344 96 1344 144 1344 192 1392 192 1440 192 1440 144 1440 96 1392 96"/><rect class="cls-2" x="1440" width="96" height="96" transform="translate(1536 -1440) rotate(90)"/><path class="cls-3" d="M0,0V192H192V0ZM48,144V48h96v96Z"/><polygon class="cls-4" points="1296 0 1248 0 1248 48 1296 48 1296 96 1344 96 1344 48 1344 0 1296 0"/><polygon class="cls-4" points="1296 144 1296 96 1248 96 1248 48 1200 48 1200 0 1152 0 1152 48 1152 192 1296 192 1344 192 1344 144 1296 144"/><polygon class="cls-3" points="1776 336 1776 288 1728 288 1728 336 1728 384 1776 384 1824 384 1824 336 1776 336"/><polygon class="cls-3" points="1872 192 1824 192 1824 240 1872 240 1872 288 1920 288 1920 240 1920 192 1872 192"/><polygon class="cls-5" points="48 384 96 384 96 336 48 336 48 288 0 288 0 336 0 384 48 384"/><rect class="cls-5" x="96" y="192" width="96" height="96" transform="translate(384 96) rotate(90)"/><polygon class="cls-6" points="1776 48 1776 96 1824 96 1824 144 1872 144 1872 192 1920 192 1920 144 1920 0 1776 0 1728 0 1728 48 1776 48"/></g></g></svg>