<svg xmlns="http://www.w3.org/2000/svg" viewBox="0 0 1920 384" preserveAspectRatio="xMinYMin"><defs><style>.cls-1{fill:#999;}.cls-2{fill:#ccc;}.cls-3{fill:#fb6b31;}.cls-4{fill:#f6f0ca;}.cls-5{fill:#666;}.cls-6{fill:#6b4832;}</style></defs><title>bg-kontakt1</title><g id="Warstwa_2" data-name="Warstwa 2"><g id="Warstwa_1-2" data-name="Warstwa 1"><polygon class="cls-1" points="448 0 384 0 384 64 448 0"/><polygon class="cls-1" points="448 128 512 128 512 64 448 128"/><polygon class="cls-2" points="1088 128 1152 128 1152 64 1088 128"/><polygon class="cls-2" points="1088 0 1024 0 1024 64 1088 0"/><rect class="cls-2" x="1056" y="32" width="64" height="64" transform="translate(1152 -1024) rotate(90)"/><polygon class="cls-1" points="1728 0 1792 0 1792 64 1728 0"/><polygon class="cls-1" points="1664 64 1664 0 1728 0 1664 64"/><polygon class="cls-1" points="1728 128 1664 128 1664 64 1728 128"/><polygon class="cls-1" points="1792 64 1792 128 1728 128 1792 64"/><rect class="cls-1" x="1696" y="32" width="64" height="64" transform="translate(1792 -1664) rotate(90)"/><polygon class="cls-3" points="384 128 384 0 256 0 256 128 320 64 384 128"/><polygon class="cls-4" points="256 128 128 128 128 0 256 128"/><rect class="cls-4" x="1504" y="96" width="32" height="32"/><rect class="cls-4" x="1408" width="32" height="32"/><polygon class="cls-4" points="1440 64 1408 64 1408 96 1408 128 1440 128 1472 128 1472 96 1472 64 1440 64"/><rect class="cls-4" x="1472" width="64" height="64" transform="translate(1536 -1472) rotate(90)"/><path class="cls-2" d="M0,0V128H128V0ZM32,96V32H96V96Z"/><polygon class="cls-1" points="1376 0 1344 0 1344 32 1376 32 1376 64 1408 64 1408 32 1408 0 1376 0"/><polygon class="cls-1" points="1376 96 1376 64 1344 64 1344 32 1312 32 1312 0 1280 0 1280 32 1280 128 1376 128 1408 128 1408 96 1376 96"/><polygon class="cls-2" points="1824 352 1824 320 1792 320 1792 352 1792 384 1824 384 1856 384 1856 352 1824 352"/><polygon class="cls-2" points="1888 256 1856 256 1856 288 1888 288 1888 320 1920 320 1920 288 1920 256 1888 256"/><polygon class="cls-5" points="32 256 64 256 64 224 32 224 32 192 0 192 0 224 0 256 32 256"/><rect class="cls-5" x="64" y="128" width="64" height="64" transform="translate(256 64) rotate(90)"/><polygon class="cls-6" points="1824 32 1824 64 1856 64 1856 96 1888 96 1888 128 1920 128 1920 96 1920 0 1824 0 1792 0 1792 32 1824 32"/><rect class="cls-6" x="640" y="64" width="64" height="64" transform="translate(1344 192) rotate(180)"/><rect class="cls-6" x="704" width="64" height="64" transform="translate(1472 64) rotate(180)"/></g></g></svg>