<?xml version="1.0" encoding="utf-8"?>
<!-- Generator: Adobe Illustrator 23.0.0, SVG Export Plug-In . SVG Version: 6.00 Build 0)  -->
<svg version="1.1" id="Warstwa_1" xmlns="http://www.w3.org/2000/svg" xmlns:xlink="http://www.w3.org/1999/xlink" x="0px" y="0px"
	 viewBox="0 0 1408 128" style="enable-background:new 0 0 1408 128;" xml:space="preserve">
<style type="text/css">
	.st0{fill:#999999;}
	.st1{fill:#FB6B31;}
	.st2{fill:#F6F0CA;}
	.st3{fill:#CCCCCC;}
	.st4{fill:#333333;}
	.st5{fill:#EFE4AC;}
	.st6{fill:#6B4832;}
</style>
<title>bg-oferta1</title>
<g>
	<polygon class="st0" points="352,0 320,0 288,0 288,0 256,0 256,32 256,64 256,96 256,128 288,128 288,96 288,64 288,32 320,32 
		352,32 384,32 384,0 	"/>
	<rect x="320" y="64" class="st0" width="64" height="64"/>
</g>
<g>
	<rect x="512" y="96" class="st1" width="32" height="32"/>
	<rect x="608" class="st1" width="32" height="32"/>
	<polygon class="st1" points="544,32 576,32 576,0 544,0 512,0 512,32 512,64 544,64 	"/>
	<rect x="576" y="64" class="st1" width="64" height="64"/>
</g>
<path class="st2" d="M896,0v128h128V0H896z M960,96V64h-32V32h64v64H960z"/>
<path class="st3" d="M0,0v128h128V0H0z M32,96V32h64v64H32z"/>
<g>
	<rect x="128" y="85.1" class="st4" width="42.9" height="42.9"/>
	<rect x="213.1" y="85.1" class="st4" width="42.9" height="42.9"/>
	<rect x="213.1" class="st4" width="42.9" height="42.9"/>
	<rect x="128" class="st4" width="42.9" height="42.9"/>
	<rect x="170.9" y="42.9" class="st4" width="42.2" height="42.2"/>
</g>
<g>
	<polygon class="st3" points="640,0 672,32 736,32 736,96 768,128 768,0 	"/>
	<rect x="640" y="96" class="st3" width="32" height="32"/>
</g>
<g>
	<polygon class="st5" points="1152,128 1184,96 1184,32 1248,32 1280,0 1152,0 	"/>
	<polygon class="st5" points="1248,64 1248,96 1216,96 1216,128 1248,128 1280,128 1280,96 1280,64 	"/>
</g>
<g>
	<rect x="1120" y="96" class="st1" width="32" height="32"/>
	<rect x="1024" y="96" class="st1" width="32" height="32"/>
	<rect x="1024" class="st1" width="32" height="32"/>
	<rect x="1088" class="st1" width="64" height="64"/>
</g>
<g>
	<polygon class="st6" points="1408,128 1376,96 1312,96 1312,32 1280,0 1280,128 	"/>
	<rect x="1376" class="st6" width="32" height="32"/>
</g>
<g>
	<rect x="480" y="96" class="st3" width="32" height="32"/>
	<rect x="384" class="st3" width="32" height="32"/>
	<polygon class="st3" points="416,64 384,64 384,96 384,128 416,128 448,128 448,96 448,64 	"/>
	<rect x="448" class="st3" width="64" height="64"/>
</g>
<g>
	<polygon class="st0" points="864,0 832,0 832,32 864,32 864,64 896,64 896,32 896,0 	"/>
	<polygon class="st0" points="864,96 864,64 832,64 832,32 800,32 800,0 768,0 768,32 768,128 864,128 896,128 896,96 	"/>
</g>
</svg>
