<?xml version="1.0" encoding="utf-8"?>
<!-- Generator: Adobe Illustrator 23.0.0, SVG Export Plug-In . SVG Version: 6.00 Build 0)  -->
<svg version="1.1" id="Warstwa_1" xmlns="http://www.w3.org/2000/svg" xmlns:xlink="http://www.w3.org/1999/xlink" x="0px" y="0px"
	 viewBox="0 0 1536 128" style="enable-background:new 0 0 1536 128;" xml:space="preserve">
<style type="text/css">
	.st0{fill:#6B4832;}
	.st1{fill:#999999;}
	.st2{fill:#EFE4AC;}
	.st3{fill:#FB6B31;}
	.st4{fill:#CCCCCC;}
</style>
<title>bg-oferta2</title>
<g>
	<rect x="864" y="96" class="st0" width="32" height="32"/>
	<rect x="768" class="st0" width="32" height="32"/>
	<polygon class="st0" points="800,64 768,64 768,96 768,128 800,128 832,128 832,96 832,64 	"/>
	<rect x="832" class="st0" width="64" height="64"/>
</g>
<path class="st1" d="M128,128h128V0H128V128z M208,16h32v32h-32V16z M208,80h32v32h-32V80z M144,16h32v32h-32V16z M144,80h32v32h-32
	V80z"/>
<path class="st2" d="M1152,128h128V0h-128V128z M1232,80h32v32h-32V80z M1168,16h32v32h-32V16z"/>
<path class="st3" d="M0,0v128h128V0H0z M64,98.6L29.4,64L64,29.4L98.6,64L64,98.6z"/>
<g>
	<polygon class="st3" points="1408,0 1440,32 1504,32 1504,96 1536,128 1536,0 	"/>
	<rect x="1408" y="96" class="st3" width="32" height="32"/>
</g>
<path class="st4" d="M640,0v128h128V0H640z M672,96V32h64v64H672z"/>
<g>
	<polygon class="st2" points="480,96 448,96 416,96 416,64 416,32 416,0 384,0 384,32 384,64 384,96 384,128 416,128 448,128 
		480,128 512,128 512,96 	"/>
	<rect x="448" class="st2" width="64" height="64"/>
</g>
<g>
	<rect x="1376" y="96" class="st1" width="32" height="32"/>
	<rect x="1280" y="96" class="st1" width="32" height="32"/>
	<rect x="1280" class="st1" width="32" height="32"/>
	<rect x="1344" class="st1" width="64" height="64"/>
</g>
<path class="st1" d="M512,0v128h128V0H512z M576,96V64h-32V32h32v32h32v32H576z"/>
<path class="st1" d="M896,0v128h128V0H896z M960,98.6L925.4,64L960,29.4L994.6,64L960,98.6z"/>
<g>
	<polygon class="st2" points="1024,0 1056,32 1120,32 1120,96 1152,128 1152,0 	"/>
	<polygon class="st2" points="1088,96 1056,96 1056,64 1024,64 1024,96 1024,128 1056,128 1088,128 	"/>
</g>
<g>
	<polygon class="st1" points="320,0 384,0 384,64 	"/>
	<polygon class="st1" points="256,64 256,0 320,0 	"/>
	<polygon class="st1" points="320,128 256,128 256,64 	"/>
	<polygon class="st1" points="384,64 384,128 320,128 	"/>
	<rect x="288" y="32" class="st1" width="64" height="64"/>
</g>
</svg>
