<svg xmlns="http://www.w3.org/2000/svg" viewBox="0 0 1920 384" preserveAspectRatio="xMinYMin"><defs><style>.cls-1{fill:#999;}.cls-2{fill:#fb6b31;}.cls-3{fill:#f6f0ca;}.cls-4{fill:#ccc;}.cls-5{fill:#333;}.cls-6{fill:#efe4ac;}.cls-7{fill:#6b4832;}</style></defs><title>bg-oferta1m</title><g id="Warstwa_2" data-name="Warstwa 2"><g id="Warstwa_1-2" data-name="Warstwa 1"><polygon class="cls-1" points="720 0 672 0 624 0 624 0 576 0 576 48 576 96 576 144 576 192 624 192 624 144 624 96 624 48 672 48 720 48 768 48 768 0 720 0"/><rect class="cls-1" x="672" y="96" width="96" height="96" transform="translate(1440 288) rotate(180)"/><rect class="cls-2" x="1680" y="144" width="48" height="48"/><rect class="cls-2" x="1536" width="48" height="48"/><polygon class="cls-2" points="1584 144 1584 96 1536 96 1536 144 1536 192 1584 192 1632 192 1632 144 1584 144"/><rect class="cls-2" x="1632" width="96" height="96" transform="translate(1728 -1632) rotate(90)"/><path class="cls-3" d="M1728,0V192h192V0Zm96,144V96h-48V48h96v96Z"/><path class="cls-4" d="M0,0V192H192V0ZM48,144V48h96v96Z"/><rect class="cls-5" x="192" y="127.68" width="64.32" height="64.32"/><rect class="cls-5" x="319.68" y="127.68" width="64.32" height="64.32"/><rect class="cls-5" x="319.68" width="64.32" height="64.32"/><rect class="cls-5" x="192" width="64.32" height="64.32"/><rect class="cls-5" x="256.32" y="64.32" width="63.36" height="63.36"/><polygon class="cls-4" points="1152 0 1200 48 1296 48 1296 144 1344 192 1344 0 1152 0"/><rect class="cls-4" x="1152" y="144" width="48" height="48" transform="translate(1344 -1008) rotate(90)"/><polygon class="cls-6" points="0 384 48 336 48 240 144 240 192 192 0 192 0 384"/><polygon class="cls-6" points="144 288 144 336 96 336 96 384 144 384 192 384 192 336 192 288 144 288"/></g></g></svg>