<svg xmlns="http://www.w3.org/2000/svg" viewBox="0 0 1920 640" preserveAspectRatio="xMinYMin"><defs><style>.cls-1{fill:#999;}.cls-2{fill:#fb6b31;}.cls-3{fill:#f6f0ca;}.cls-4{fill:#ccc;}.cls-5{fill:#333;}.cls-6{fill:#efe4ac;}.cls-7{fill:#6b4832;}</style></defs><title>bg-oferta1</title><g id="Warstwa_2" data-name="Warstwa 2"><g id="Warstwa_1-2" data-name="Warstwa 1"><polygon class="cls-1" points="736 0 704 0 672 0 672 0 640 0 640 32 640 64 640 96 640 128 672 128 672 96 672 64 672 32 704 32 736 32 768 32 768 0 736 0"/><rect class="cls-1" x="704" y="64" width="64" height="64" transform="translate(1472 192) rotate(180)"/><rect class="cls-2" x="1024" y="96" width="32" height="32" transform="translate(1152 -928) rotate(90)"/><rect class="cls-2" x="1120" width="32" height="32" transform="translate(1152 -1120) rotate(90)"/><polygon class="cls-2" points="1056 32 1088 32 1088 0 1056 0 1024 0 1024 32 1024 64 1056 64 1056 32"/><rect class="cls-2" x="1088" y="64" width="64" height="64" transform="translate(2240 192) rotate(180)"/><path class="cls-3" d="M1792,0V128h128V0Zm64,96V64h-32V32h64V96Z"/><path class="cls-4" d="M0,0V128H128V0ZM32,96V32H96V96Z"/><rect class="cls-5" x="128" y="85.12" width="42.88" height="42.88"/><rect class="cls-5" x="213.12" y="85.12" width="42.88" height="42.88"/><rect class="cls-5" x="213.12" width="42.88" height="42.88"/><rect class="cls-5" x="128" width="42.88" height="42.88"/><rect class="cls-5" x="170.88" y="42.88" width="42.24" height="42.24"/><polygon class="cls-4" points="1280 0 1312 32 1376 32 1376 96 1408 128 1408 0 1280 0"/><rect class="cls-4" x="1280" y="96" width="32" height="32" transform="translate(1408 -1184) rotate(90)"/><polygon class="cls-6" points="0 256 32 224 32 160 96 160 128 128 0 128 0 256"/><polygon class="cls-6" points="96 192 96 224 64 224 64 256 96 256 128 256 128 224 128 192 96 192"/><rect class="cls-2" x="1888" y="224" width="32" height="32"/><rect class="cls-2" x="1792" y="224" width="32" height="32"/><rect class="cls-2" x="1792" y="128" width="32" height="32"/><rect class="cls-2" x="1856" y="128" width="64" height="64" transform="translate(2048 -1728) rotate(90)"/><polygon class="cls-7" points="1920 640 1888 608 1824 608 1824 544 1792 512 1792 640 1920 640"/><rect class="cls-7" x="1888" y="512" width="32" height="32"/><rect class="cls-4" x="864" y="96" width="32" height="32"/><rect class="cls-4" x="768" width="32" height="32"/><polygon class="cls-4" points="800 64 768 64 768 96 768 128 800 128 832 128 832 96 832 64 800 64"/><rect class="cls-4" x="832" width="64" height="64" transform="translate(896 -832) rotate(90)"/><polygon class="cls-1" points="1760 0 1728 0 1728 32 1760 32 1760 64 1792 64 1792 32 1792 0 1760 0"/><polygon class="cls-1" points="1760 96 1760 64 1728 64 1728 32 1696 32 1696 0 1664 0 1664 32 1664 128 1760 128 1792 128 1792 96 1760 96"/></g></g></svg>