<svg xmlns="http://www.w3.org/2000/svg" viewBox="0 0 1920 1152" preserveAspectRatio="xMinYMin"><defs><style>.cls-1{fill:#6b4832;}.cls-2{fill:#ccc;}.cls-3{fill:#999;}.cls-4{fill:#fb6b31;}.cls-5{fill:#f6f0ca;}.cls-6{fill:#efe4ac;}</style></defs><title>bg-oferta2m</title><g id="Warstwa_2" data-name="Warstwa 2"><g id="Warstwa_1-2" data-name="Warstwa 1"><rect class="cls-1" x="1680" y="144" width="48" height="48"/><rect class="cls-1" x="1536" width="48" height="48"/><polygon class="cls-1" points="1584 96 1536 96 1536 144 1536 192 1584 192 1632 192 1632 144 1632 96 1584 96"/><rect class="cls-1" x="1632" width="96" height="96" transform="translate(1728 -1632) rotate(90)"/><rect class="cls-2" y="336" width="48" height="48" transform="translate(384 336) rotate(90)"/><rect class="cls-2" x="144" y="192" width="48" height="48" transform="translate(384 48) rotate(90)"/><polygon class="cls-2" points="48 192 0 192 0 240 0 288 48 288 96 288 96 240 96 192 48 192"/><rect class="cls-2" x="96" y="288" width="96" height="96" transform="translate(288 672) rotate(180)"/><path class="cls-3" d="M192,192H384V0H192ZM312,24h48V72H312Zm0,96h48v48H312ZM216,24h48V72H216Zm0,96h48v48H216Z"/><path class="cls-3" d="M1728,384h192V192H1728Zm120-72h48v48h-48Zm-96-96h48v48h-48Z"/><path class="cls-4" d="M0,0V192H192V0ZM96,147.84,44.16,96,96,44.16,147.84,96Z"/><polygon class="cls-5" points="576 0 624 48 720 48 720 144 768 192 768 0 576 0"/><rect class="cls-5" x="576" y="144" width="48" height="48" transform="translate(768 -432) rotate(90)"/><path class="cls-2" d="M1344,0V192h192V0Zm48,144V48h96v96Z"/><polygon class="cls-6" points="144 720 96 720 48 720 48 672 48 624 48 576 0 576 0 624 0 672 0 720 0 768 48 768 96 768 144 768 192 768 192 720 144 720"/><rect class="cls-6" x="96" y="576" width="96" height="96" transform="translate(768 480) rotate(90)"/><rect class="cls-4" x="1872" y="1104" width="48" height="48"/><rect class="cls-4" x="1728" y="1104" width="48" height="48"/><rect class="cls-4" x="1728" y="960" width="48" height="48"/><rect class="cls-4" x="1824" y="960" width="96" height="96" transform="translate(2880 -864) rotate(90)"/></g></g></svg>