<svg xmlns="http://www.w3.org/2000/svg" viewBox="0 0 1920 896" preserveAspectRatio="xMinYMin"><defs><style>.cls-1{fill:#6b4832;}.cls-2{fill:#999;}.cls-3{fill:#f6f0ca;}.cls-4{fill:#fb6b31;}.cls-5{fill:#ccc;}.cls-6{fill:#efe4ac;}</style></defs><title>bg-oferta2</title><g id="Warstwa_2" data-name="Warstwa 2"><g id="Warstwa_1-2" data-name="Warstwa 1"><rect class="cls-1" x="1760" y="96" width="32" height="32"/><rect class="cls-1" x="1664" width="32" height="32"/><polygon class="cls-1" points="1696 64 1664 64 1664 96 1664 128 1696 128 1728 128 1728 96 1728 64 1696 64"/><rect class="cls-1" x="1728" width="64" height="64" transform="translate(1792 -1728) rotate(90)"/><path class="cls-2" d="M128,128H256V0H128ZM208,16h32V48H208Zm0,64h32v32H208ZM144,16h32V48H144Zm0,64h32v32H144Z"/><path class="cls-3" d="M1792,256h128V128H1792Zm80-48h32v32h-32Zm-64-64h32v32h-32Z"/><path class="cls-4" d="M0,0V128H128V0ZM64,98.56,29.44,64,64,29.44,98.56,64Z"/><polygon class="cls-4" points="1792 768 1824 800 1888 800 1888 864 1920 896 1920 768 1792 768"/><rect class="cls-4" x="1792" y="864" width="32" height="32" transform="translate(2688 -928) rotate(90)"/><path class="cls-5" d="M1408,0V128h128V0Zm32,96V32h64V96Z"/><polygon class="cls-6" points="992 96 960 96 928 96 928 64 928 32 928 0 896 0 896 32 896 64 896 96 896 128 928 128 960 128 992 128 1024 128 1024 96 992 96"/><rect class="cls-6" x="960" width="64" height="64" transform="translate(1024 -960) rotate(90)"/><rect class="cls-2" x="96" y="608" width="32" height="32"/><rect class="cls-2" y="608" width="32" height="32"/><rect class="cls-2" y="512" width="32" height="32"/><rect class="cls-2" x="64" y="512" width="64" height="64" transform="translate(640 448) rotate(90)"/><path class="cls-2" d="M1280,0V128h128V0Zm64,96V64h-32V32h32V64h32V96Z"/><path class="cls-2" d="M1792,0V128h128V0Zm64,98.56L1821.44,64,1856,29.44,1890.56,64Z"/><polygon class="cls-6" points="256 128 288 160 352 160 352 224 384 256 384 128 256 128"/><polygon class="cls-6" points="320 224 288 224 288 192 256 192 256 224 256 256 288 256 320 256 320 224"/><polygon class="cls-2" points="448 0 512 0 512 64 448 0"/><polygon class="cls-2" points="384 64 384 0 448 0 384 64"/><polygon class="cls-2" points="448 128 384 128 384 64 448 128"/><polygon class="cls-2" points="512 64 512 128 448 128 512 64"/><rect class="cls-2" x="416" y="32" width="64" height="64" transform="translate(512 -384) rotate(90)"/></g></g></svg>