<svg xmlns="http://www.w3.org/2000/svg" viewBox="0 0 241 241"><defs><style>.cls-1{fill:#fb6b31;}</style></defs><title>kuchnia</title><g id="Warstwa_2" data-name="Warstwa 2"><g id="Warstwa_1-2" data-name="Warstwa 1"><path class="cls-1" d="M0,118a120.5,120.5,0,0,0,203.86,89.54,120.5,120.5,0,0,0-166.77-174A119.71,119.71,0,0,0,0,118ZM122.93,5.82a114.71,114.71,0,0,1-2.39,229.39l-2.46,0A114.84,114.84,0,0,1,5.82,118.07C7.16,54.84,59.69,4.44,122.93,5.82Z"/><path class="cls-1" d="M190.37,185.74a2.67,2.67,0,0,0-2.67,2.67v5.31a2.67,2.67,0,0,0,5.35,0v-5.31A2.67,2.67,0,0,0,190.37,185.74Z"/><path class="cls-1" d="M51.64,185.74A2.67,2.67,0,0,0,49,188.42v5.31a2.67,2.67,0,1,0,5.35,0v-5.31A2.67,2.67,0,0,0,51.64,185.74Z"/><path class="cls-1" d="M92.92,144.63h3.16a2.67,2.67,0,0,0,0-5.35H92.92a2.67,2.67,0,0,0,0,5.35Z"/><path class="cls-1" d="M144.91,144.63h3.16a2.67,2.67,0,1,0,0-5.35h-3.16a2.67,2.67,0,0,0,0,5.35Z"/><path class="cls-1" d="M45,82.21H49v87.88a2.67,2.67,0,1,0,5.35,0V82.21H82c.21,14.4,13.19,26.07,29.12,26.07h6.75v60.49a2.67,2.67,0,0,0,5.35,0V108.28h6.75c15.93,0,28.92-11.66,29.12-26.07h28.67v87.88a2.67,2.67,0,0,0,5.35,0V82.21H196a2.67,2.67,0,1,0,0-5.35h-36.9v-5.3h4.28a2.67,2.67,0,1,0,0-5.35H77.67a2.67,2.67,0,0,0,0,5.35H82c0,.07,0,.13,0,.2,0,1,0,2.63,0,5.1H45a2.67,2.67,0,1,0,0,5.35ZM153.71,71.56v10.3c0,11.61-10.67,21.06-23.78,21.06H111.08c-13.11,0-23.78-9.45-23.78-21.06,0-5.93,0-8.86,0-10.3Z"/><path class="cls-1" d="M196,176.58H45a2.67,2.67,0,0,0,0,5.35H196a2.67,2.67,0,1,0,0-5.35Z"/><path class="cls-1" d="M136.35,113.09a2.67,2.67,0,0,0-2.67,2.67v52.19a2.67,2.67,0,0,0,2.67,2.67h41.57a2.67,2.67,0,0,0,2.67-2.67V115.76a2.67,2.67,0,0,0-2.67-2.67Zm38.89,52.19H139V118.44h36.22Z"/><path class="cls-1" d="M63.08,113.09a2.67,2.67,0,0,0-2.67,2.67v52.19a2.67,2.67,0,0,0,2.67,2.67h41.57a2.67,2.67,0,0,0,2.67-2.67V115.76a2.67,2.67,0,0,0-2.67-2.67ZM102,165.27H65.76V118.44H102Z"/><path class="cls-1" d="M129,21a11.15,11.15,0,0,0-11.13,11.13c0,1.35,0,4.38,0,8,0,.06,0,.11,0,.16V61.64h0v0h0a2.67,2.67,0,0,0,5.34,0h0s0-24.87,0-29.55a5.78,5.78,0,0,1,11.57,0v4.31a2.67,2.67,0,0,0,5.35,0V32.13A11.15,11.15,0,0,0,129,21Z"/></g></g></svg>