<svg xmlns="http://www.w3.org/2000/svg" viewBox="0 0 241 241"><defs><style>.cls-1{fill:#fb6b31;}</style></defs><title>piwnica</title><g id="Warstwa_2" data-name="Warstwa 2"><g id="Warstwa_1-2" data-name="Warstwa 1"><path class="cls-1" d="M0,118a120.5,120.5,0,0,0,203.86,89.54,120.5,120.5,0,0,0-166.77-174A119.71,119.71,0,0,0,0,118ZM122.93,5.82a114.71,114.71,0,0,1-2.39,229.39l-2.46,0A114.84,114.84,0,0,1,5.82,118.07C7.16,54.84,59.69,4.44,122.93,5.82Z"/><path class="cls-1" d="M108.74,94.89c1.74,3.79,6.11,6.25,11.14,6.25a13.49,13.49,0,0,0,10.8-5.75,15.08,15.08,0,0,0,3-7.85,14.44,14.44,0,0,0-5.23-12.21l-3-2.51-1,3.85a9.35,9.35,0,0,0-.44,1.15,8.77,8.77,0,0,1-.45,1.16l-.11.22-.11-.22a9.62,9.62,0,0,0-1.74-2.61c-3-3.17-8.05-2.88-10.1-2.6l-4.18.5,2.51,3.34c1.46,2,2.13,3.75,1.78,4.67,0,.28-.13.39-.36.59s-.22.2-.38.35l-.31.3a8.69,8.69,0,0,0-2.13,2.83c-1,2.41-1,5.2.27,8.3Zm4-6.52a2,2,0,0,1,.69-.9l.39-.37a6,6,0,0,0,2.26-2.94,6.77,6.77,0,0,0,0-5.19l-.08-.22.23.06a5.51,5.51,0,0,1,1.35.57l.26.14,0,0a31,31,0,0,1,2,3.19c.36.89.71,1.6,1.06,2.29l1.68,3.85,2.33-3.17a21.47,21.47,0,0,0,1.75-2.45,3.66,3.66,0,0,0,.7-1l.11-.22.11.22a10.78,10.78,0,0,1,1.07,5,8.92,8.92,0,0,1-2,5.19l-.07.09a8.15,8.15,0,0,1-3.85,3.1,8,8,0,0,1-2.89.5c-2.69,0-5.58-1.14-6.76-3.38A5.64,5.64,0,0,1,112.73,88.37Z"/><path class="cls-1" d="M197.64,77V71.69h-18V58.92a18.13,18.13,0,0,0-18.1-18.1H79.45a18.13,18.13,0,0,0-18.1,18.1V71.69h-18V77h18v56.24h-18v5.34h18v43.47a18.13,18.13,0,0,0,18.1,18.1h82.1a18.13,18.13,0,0,0,18.1-18.1V138.6h18v-5.34h-18V77Zm-23.48,82.1v22.95a12.3,12.3,0,0,1-3.54,8.94,12.75,12.75,0,0,1-9.06,3.82H79.45a12.78,12.78,0,0,1-12.76-12.76V159.13Zm-94.71-113h82.1a12.78,12.78,0,0,1,12.76,12.76v94.87H66.68V58.92A12.78,12.78,0,0,1,79.45,46.16Z"/><path class="cls-1" d="M93.5,145.92V125.5a2.68,2.68,0,0,1,5.35,0v20.42a2.68,2.68,0,0,1-5.35,0Z"/><path class="cls-1" d="M117.82,145.92V125.5a2.68,2.68,0,0,1,5.35,0v20.42a2.68,2.68,0,0,1-5.35,0Z"/><path class="cls-1" d="M142.15,145.92V125.5a2.68,2.68,0,0,1,5.35,0v20.42a2.68,2.68,0,0,1-5.35,0Z"/><path class="cls-1" d="M88.09,166.64A10.34,10.34,0,1,0,98.43,177,10.32,10.32,0,0,0,88.09,166.64Zm0,15.43A5.09,5.09,0,1,1,93.18,177,4.93,4.93,0,0,1,88.09,182.08Z"/><path class="cls-1" d="M160.58,180H118.19a2.67,2.67,0,0,1,0-5.35h42.39a2.67,2.67,0,0,1,0,5.35Z"/><path class="cls-1" d="M155.08,113.39H85.92a7.68,7.68,0,0,1-7.67-7.67V68.13a7.68,7.68,0,0,1,7.67-7.67h69.16a7.68,7.68,0,0,1,7.67,7.67v37.58A7.68,7.68,0,0,1,155.08,113.39ZM85.92,65.81a2.33,2.33,0,0,0-2.33,2.33v37.58A2.33,2.33,0,0,0,85.92,108h69.16a2.33,2.33,0,0,0,2.33-2.33V68.13a2.33,2.33,0,0,0-2.33-2.33Z"/></g></g></svg>