<svg xmlns="http://www.w3.org/2000/svg" viewBox="0 0 241 241"><defs><style>.cls-1{fill:#fb6b31;}</style></defs><title>lazienka</title><g id="Warstwa_2" data-name="Warstwa 2"><g id="Warstwa_1-2" data-name="Warstwa 1"><path class="cls-1" d="M0,118a120.5,120.5,0,0,0,203.86,89.54,120.5,120.5,0,0,0-166.77-174A119.71,119.71,0,0,0,0,118ZM122.93,5.82a114.71,114.71,0,0,1-2.39,229.39l-2.46,0A114.84,114.84,0,0,1,5.82,118.07C7.16,54.84,59.69,4.44,122.93,5.82Z"/><path class="cls-1" d="M163.86,140.75a2.49,2.49,0,0,0-2.49-2.49H70.7a2.49,2.49,0,0,0-2.49,2.49V146a2.49,2.49,0,1,0,5,0v-2.77h88.18A2.49,2.49,0,0,0,163.86,140.75Z"/><path class="cls-1" d="M195.46,147H77.24a2.49,2.49,0,0,0-2.48,2.69c.69,8.74,8,18.82,19.11,26.31a19.55,19.55,0,0,1,2.95,2.49l.31.27a2.49,2.49,0,1,0,3.24-3.78l-.08-.06a24.31,24.31,0,0,0-3.64-3C88,166,81.93,158.65,80.19,152H193v16.2l-15.25,10a24.63,24.63,0,0,0-11.13,20.64v14.33H107.2V191.32a22.43,22.43,0,0,0-.17-2.78,48.69,48.69,0,0,0,11.65,4,2.45,2.45,0,0,0,1.87-.33,2.49,2.49,0,0,0-.82-4.54,41.63,41.63,0,0,1-15.28-6.42,2.49,2.49,0,0,0-3.68,3,17.89,17.89,0,0,1,1.46,7v24.32a2.49,2.49,0,0,0,2.49,2.49h64.36a2.49,2.49,0,0,0,2.49-2.49V198.83a19.67,19.67,0,0,1,8.89-16.48l16.38-10.77a2.49,2.49,0,0,0,1.12-2.08v-20A2.49,2.49,0,0,0,195.46,147Z"/><path class="cls-1" d="M188.22,80.65H175.57a9.74,9.74,0,0,0-9.73,9.73v47.39a2.49,2.49,0,0,0,5,0V90.38a4.75,4.75,0,0,1,4.74-4.75h12.65A4.75,4.75,0,0,1,193,90.38v59.91a2.49,2.49,0,1,0,5,0V90.38A9.74,9.74,0,0,0,188.22,80.65Z"/><path class="cls-1" d="M176.08,134.46a2.67,2.67,0,0,1-2.67-2.67V92a2.67,2.67,0,0,1,5.35,0v39.79A2.67,2.67,0,0,1,176.08,134.46Z"/><path class="cls-1" d="M122,91.78a2.67,2.67,0,0,0-3.76-.45l-.41.32a24.51,24.51,0,0,0-28.33-7.23,2.65,2.65,0,0,0-.56-1.7l-2.87-3.66a2.67,2.67,0,0,0-3.76-.45l-1.52,1.19L51.75,42.69A2.67,2.67,0,1,0,47.54,46l29.09,37.1-1.52,1.19A2.67,2.67,0,0,0,74.66,88l2.87,3.66a2.66,2.66,0,0,0,1.51,1,24.51,24.51,0,0,0,.27,29.22l-.41.32a2.67,2.67,0,1,0,3.3,4.21l39.37-30.87A2.67,2.67,0,0,0,122,91.78Zm-42.2,13A19.14,19.14,0,0,1,113.65,95L83.53,118.57A19,19,0,0,1,79.83,104.79Z"/></g></g></svg>