<svg xmlns="http://www.w3.org/2000/svg" viewBox="0 0 241 241"><defs><style>.cls-1{fill:#fb6b31;}</style></defs><title>pogotowie</title><g id="Warstwa_2" data-name="Warstwa 2"><g id="Warstwa_1-2" data-name="Warstwa 1"><path class="cls-1" d="M0,118a120.5,120.5,0,0,0,203.86,89.54,120.5,120.5,0,0,0-166.77-174A119.71,119.71,0,0,0,0,118ZM122.93,5.82a114.71,114.71,0,0,1-2.39,229.39l-2.46,0A114.84,114.84,0,0,1,5.82,118.07C7.16,54.84,59.69,4.44,122.93,5.82Z"/><path class="cls-1" d="M88.49,36.75h-.14A3.21,3.21,0,0,0,85.3,40l.4,18.46h0a3.17,3.17,0,0,0,1,2.24,3.22,3.22,0,0,0,2.27.88,3.13,3.13,0,0,0,2.23-1,3.16,3.16,0,0,0,.89-2.27l-.4-18.46A3.19,3.19,0,0,0,88.49,36.75Z"/><path class="cls-1" d="M150.25,49.3a2.83,2.83,0,0,0-2.82,2.82v4.11a2.82,2.82,0,1,0,5.65,0V52.12A2.83,2.83,0,0,0,150.25,49.3Z"/><path class="cls-1" d="M170.7,53.48a2.82,2.82,0,0,0-1.92.75l-6.13,6.15a2.82,2.82,0,0,0,3.81,4.17l.16-.18,6.15-6.15a2.82,2.82,0,0,0-2.07-4.74Z"/><path class="cls-1" d="M179,71.87H166.69a2.82,2.82,0,1,0,0,5.65H179a2.82,2.82,0,0,0,0-5.65Z"/><path class="cls-1" d="M127.74,58.21l6.15,6.15A2.82,2.82,0,0,0,138,60.47l-.09-.08-6.15-6.17a2.82,2.82,0,0,0-4,4Z"/><path class="cls-1" d="M129.73,77.51h4.11a2.82,2.82,0,0,0,0-5.65h-4.11a2.82,2.82,0,0,0,0,5.65Z"/><path class="cls-1" d="M117.44,45.16a2.82,2.82,0,0,0-2,.8L101.1,60.33a2.82,2.82,0,0,0,1.82,4.89,2.78,2.78,0,0,0,2-.76l.14-.14,14.37-14.37a2.82,2.82,0,0,0-2-4.79Z"/><path class="cls-1" d="M111.25,71.87H105.1a2.82,2.82,0,0,0,0,5.65h6.15a2.82,2.82,0,0,0,0-5.65Z"/><path class="cls-1" d="M64.12,56.16l8.1,8.21a2.82,2.82,0,0,0,4-4l-.2-.21h.08l-8-8a2.82,2.82,0,0,0-4,4Z"/><path class="cls-1" d="M72.27,71.87H64.05a2.82,2.82,0,0,0,0,5.65h8.22a2.82,2.82,0,0,0,0-5.65Z"/><path class="cls-1" d="M116.8,105a2.67,2.67,0,0,0-2.67,2.67v9H104v-9a2.67,2.67,0,1,0-5.35,0V131a2.67,2.67,0,1,0,5.35,0v-9h10.09v9a2.67,2.67,0,1,0,5.35,0V107.64A2.67,2.67,0,0,0,116.8,105Z"/><path class="cls-1" d="M214.34,130.68,203,127.31a3.36,3.36,0,0,1-2-1.67L181.16,87a8.89,8.89,0,0,0-8-4.89H162.07L161,70.59a6.49,6.49,0,0,0-6.44-5.9H147a6.5,6.5,0,0,0-6.44,5.9l-1.05,11.54h-39l-1-11.54a6.5,6.5,0,0,0-6.44-5.9H85.38a6.49,6.49,0,0,0-6.44,5.9L77.89,82.13H66.1a9,9,0,0,0-9,9v11.46H26.73a2.67,2.67,0,1,0,0,5.35h30.4v7.61H16.44a2.67,2.67,0,0,0,0,5.35H57.12v7.61H26.73a2.67,2.67,0,0,0,0,5.35h30.4v27.05a9,9,0,0,0,9,9h9.76l0,.1a19.53,19.53,0,0,0,38.48,0l0-.1h52.22l0,.1a19.53,19.53,0,0,0,38.48,0l0-.1h6.69a9,9,0,0,0,9-9V139.28A9,9,0,0,0,214.34,130.68ZM181.55,100.1l0,.07,10.67,21H175.66v-21Zm-35.41-29a.85.85,0,0,1,.85-.76h7.58a.85.85,0,0,1,.85.76l1,11H145.14Zm-61.57,0a.86.86,0,0,1,.85-.78H93a.85.85,0,0,1,.85.76l1,11H83.55ZM95.13,180.65A13.89,13.89,0,1,1,109,166.77,13.9,13.9,0,0,1,95.13,180.65Zm90.76,0a13.89,13.89,0,1,1,13.89-13.89A13.9,13.9,0,0,1,185.89,180.65Zm29.28-19.78a3.33,3.33,0,0,1-3.33,3.33h-6.59l0-.11a19.53,19.53,0,0,0-22.15-16.5,19.65,19.65,0,0,0-16.5,16.5l0,.11H114.47l0-.11a19.53,19.53,0,0,0-22.15-16.5,19.65,19.65,0,0,0-16.5,16.5l0,.11H66.1a3.33,3.33,0,0,1-3.33-3.33V133.82H78.45a2.67,2.67,0,0,0,0-5.35H62.77v-7.61h5.39a2.67,2.67,0,0,0,0-5.35H62.77v-7.61H78.45a2.67,2.67,0,1,0,0-5.35H62.77V91.08a3.33,3.33,0,0,1,3.33-3.33H173.17a3.32,3.32,0,0,1,3,1.82l2.49,4.86H150.08a6.76,6.76,0,0,0-6.75,6.76V120a6.76,6.76,0,0,0,6.75,6.76h45.17l.72,1.4a9.06,9.06,0,0,0,5.45,4.52L212.8,136a3.33,3.33,0,0,1,2.37,3.21ZM170,100.06v21.07H150.08A1.11,1.11,0,0,1,149,120V101.21a1.11,1.11,0,0,1,1.11-1.11Z"/></g></g></svg>