<svg xmlns="http://www.w3.org/2000/svg" viewBox="0 0 241 241"><defs><style>.cls-1{fill:#fb6b31;}</style></defs><title>dom</title><g id="Warstwa_2" data-name="Warstwa 2"><g id="Warstwa_1-2" data-name="Warstwa 1"><path class="cls-1" d="M0,118a120.5,120.5,0,0,0,203.86,89.54,120.5,120.5,0,0,0-166.77-174A119.71,119.71,0,0,0,0,118ZM122.93,5.82a114.71,114.71,0,0,1-2.39,229.39l-2.46,0A114.84,114.84,0,0,1,5.82,118.07C7.16,54.84,59.69,4.44,122.93,5.82Z"/><path class="cls-1" d="M188.84,103.78a2.67,2.67,0,0,0-2.67,2.67v81.38H54.83V105.16a2.67,2.67,0,1,0-5.35,0v85.35a2.67,2.67,0,0,0,2.67,2.67H188.84a2.67,2.67,0,0,0,2.67-2.67V106.45A2.67,2.67,0,0,0,188.84,103.78Z"/><path class="cls-1" d="M224.08,119.4l-48-37.5V44.5a2.67,2.67,0,0,0-2.67-2.67H154a2.67,2.67,0,0,0-2.67,2.67v18l-29.16-22.8a2.67,2.67,0,0,0-3.29,0L16.91,119.4a2.68,2.68,0,0,0,3.3,4.21L120.5,45.2l100.29,78.42a2.67,2.67,0,1,0,3.29-4.21ZM156.66,47.17h14.12V77.72l-14.12-11Z"/><path class="cls-1" d="M166.09,89.29H145.87a2.63,2.63,0,0,0-2.63,2.63v22.17c0,5.43-3,8.41-4,8.41h-8.07v-.18a2.63,2.63,0,0,0-2.63-2.63H115.06a2.63,2.63,0,0,0-2.63,2.63v.18H101.8a28,28,0,0,0-21.83,11,36.82,36.82,0,0,0-7.69,22.85v22.17a2.63,2.63,0,0,0,2.63,2.63H95.13a2.63,2.63,0,0,0,2.63-2.63V156.39c0-5.43,3-8.41,4-8.41h10.63v.18a2.63,2.63,0,0,0,2.63,2.63H128.5a2.63,2.63,0,0,0,2.63-2.63V148h8.07a28,28,0,0,0,21.83-11,36.82,36.82,0,0,0,7.69-22.85V91.92A2.63,2.63,0,0,0,166.09,89.29ZM117.68,125h8v20.57h-8ZM101.8,142.72c-5,0-9.3,6.39-9.3,13.67v19.54h-15V156.39a31.54,31.54,0,0,1,6.55-19.59,22.77,22.77,0,0,1,17.71-9h10.63v15Zm61.65-28.63a31.54,31.54,0,0,1-6.55,19.59,22.77,22.77,0,0,1-17.71,9h-8.07v-15h8.07c5,0,9.3-6.39,9.3-13.67V94.55h15Z"/></g></g></svg>